<svg width="640" height="240" viewBox="0 0 640 240" fill="none" xmlns="http://www.w3.org/2000/svg">
<g id="logo-mrd">
<rect width="640" height="240" fill="#272727"/>
<g id="mrd-whites">
<path id="Vector" fill-rule="evenodd" clip-rule="evenodd" d="M59.2566 188.803C56.6642 188.803 54.2652 188.301 52.0588 187.298C51.0388 186.809 50.101 186.241 49.2462 185.596V187.966H35.1816V127.02H49.5769V148.984C50.3699 148.479 51.2248 148.041 52.1417 147.671C54.3477 146.722 56.7194 146.248 59.2566 146.248C63.1727 146.248 66.6198 147.169 69.5983 149.008C72.5766 150.791 74.8931 153.299 76.5477 156.532C78.2577 159.764 79.1125 163.444 79.1125 167.568C79.1125 171.636 78.2577 175.287 76.5477 178.52C74.8931 181.696 72.5766 184.204 69.5983 186.045C66.6198 187.884 63.1727 188.803 59.2566 188.803ZM56.6919 175.844C58.2363 175.844 59.5874 175.482 60.7459 174.758C61.9591 174.034 62.8969 173.057 63.5588 171.831C64.2207 170.549 64.5515 169.101 64.5515 167.484C64.5515 165.923 64.2207 164.53 63.5588 163.304C62.8969 162.021 61.9591 161.019 60.7459 160.295C59.5325 159.569 58.1533 159.207 56.6093 159.207C55.0649 159.207 53.6858 159.569 52.4725 160.295C51.3143 161.019 50.4042 161.994 49.7423 163.22C49.0804 164.446 48.7496 165.868 48.7496 167.484C48.7496 169.156 49.0804 170.633 49.7423 171.915C50.4042 173.141 51.342 174.116 52.5554 174.842C53.7687 175.511 55.1475 175.844 56.6919 175.844Z" fill="white"/>
<path id="Vector_2" fill-rule="evenodd" clip-rule="evenodd" d="M147.292 187.966V164.892C147.292 162.998 146.741 161.521 145.637 160.461C144.534 159.347 143.128 158.789 141.418 158.789C140.26 158.789 139.212 159.04 138.274 159.542C137.391 160.044 136.702 160.741 136.206 161.632C135.709 162.523 135.461 163.611 135.461 164.892V187.966H121.066V127.02H135.461V149.548C136.079 149.068 136.741 148.637 137.447 148.255C139.818 146.918 142.576 146.248 145.72 146.248C148.974 146.248 151.787 146.918 154.159 148.255C156.585 149.537 158.433 151.322 159.702 153.606C161.025 155.891 161.688 158.538 161.688 161.548V187.966H147.292Z" fill="white"/>
<path id="Vector_3" fill-rule="evenodd" clip-rule="evenodd" d="M186.177 188.803C182.426 188.803 179.088 187.884 176.166 186.045C173.243 184.206 170.954 181.698 169.3 178.52C167.645 175.288 166.817 171.637 166.817 167.568C166.817 163.444 167.645 159.766 169.3 156.532C170.954 153.3 173.243 150.791 176.166 149.008C179.088 147.169 182.426 146.249 186.177 146.249C188.714 146.249 191.031 146.722 193.128 147.671C194.436 148.227 195.593 148.937 196.601 149.798V147.085H210.749V187.966H196.601V185.216C195.593 186.069 194.436 186.79 193.128 187.383C191.031 188.33 188.714 188.803 186.177 188.803ZM189.238 175.844C191.61 175.844 193.512 175.064 194.947 173.505C196.436 171.944 197.18 169.938 197.18 167.484C197.18 165.869 196.849 164.446 196.189 163.22C195.526 161.994 194.587 161.019 193.375 160.295C192.216 159.57 190.866 159.208 189.32 159.208C187.776 159.208 186.398 159.57 185.183 160.295C184.026 161.019 183.087 162.023 182.372 163.304C181.709 164.53 181.378 165.925 181.378 167.484C181.378 169.101 181.709 170.549 182.372 171.832C183.033 173.058 183.971 174.034 185.183 174.758C186.398 175.482 187.749 175.844 189.238 175.844Z" fill="white"/>
<path id="Vector_4" fill-rule="evenodd" clip-rule="evenodd" d="M225.111 186.661C228.094 188.485 231.545 189.396 235.466 189.396C238.006 189.396 240.38 188.9 242.59 187.905C243.605 187.422 244.543 186.865 245.407 186.23V188.568H259.572V128.13H245.157V149.91C244.363 149.408 243.508 148.975 242.59 148.607C240.38 147.668 238.006 147.197 235.466 147.197C231.489 147.197 228.009 148.11 225.028 149.933C222.1 151.702 219.781 154.19 218.07 157.396C216.413 160.601 215.585 164.249 215.585 168.34C215.585 172.374 216.413 175.994 218.07 179.2C219.781 182.351 222.129 184.837 225.111 186.661ZM242.175 175.552C241.016 176.215 239.636 176.547 238.033 176.547C236.542 176.547 235.189 176.188 233.974 175.469C232.76 174.751 231.82 173.783 231.159 172.567C230.496 171.296 230.164 169.859 230.164 168.257C230.164 166.709 230.496 165.327 231.159 164.111C231.876 162.84 232.815 161.844 233.974 161.126C235.189 160.409 236.57 160.048 238.116 160.048C239.663 160.048 241.016 160.409 242.175 161.126C243.391 161.844 244.329 162.812 244.992 164.028C245.655 165.245 245.985 166.653 245.985 168.257C245.985 169.915 245.626 171.379 244.909 172.651C244.246 173.867 243.335 174.833 242.175 175.552Z" fill="white"/>
<path id="Vector_5" d="M268.211 188.35V146.457H288.393L293.457 163.514L295.84 171.968H296.064L298.372 163.514L303.362 146.457H323.543V188.35H310.064V175.632L310.81 159.773H310.735L301.278 188.35H290.404L281.021 159.773H280.947L281.691 175.632V188.35H268.211Z" fill="white"/>
<path id="Vector_6" fill-rule="evenodd" clip-rule="evenodd" d="M330.543 146.457V188.35H345.289V174.735H349.7L357.354 188.35H372.696L362.91 173.024C364.11 172.512 365.188 171.885 366.142 171.144C369.27 168.7 370.834 165.209 370.834 160.671C370.834 156.083 369.27 152.566 366.142 150.123C363.064 147.679 358.694 146.457 353.034 146.457H330.543ZM350.875 165.758H345.289V156.257H350.875C352.662 156.257 353.978 156.656 354.822 157.455C355.716 158.203 356.162 159.399 356.162 161.046C356.162 162.641 355.716 163.837 354.822 164.636C353.978 165.384 352.662 165.758 350.875 165.758Z" fill="white"/>
<path id="Vector_7" d="M375.641 188.35V146.457H395.673C402.674 146.457 408.06 148.303 411.834 151.993C415.608 155.634 417.494 160.771 417.494 167.404C417.494 174.036 415.608 179.199 411.834 182.888C408.06 186.529 402.674 188.35 395.673 188.35H375.641ZM390.385 177.354H395.524C398.056 177.354 399.819 176.53 400.812 174.885C401.854 173.188 402.376 170.695 402.376 167.404C402.376 164.112 401.854 161.643 400.812 159.998C399.819 158.303 398.056 157.455 395.524 157.455H390.385V177.354Z" fill="white"/>
<path id="Vector_8" d="M416.049 188.35L430.869 146.457H448.892L463.639 188.35H448.818L446.658 180.644H432.36L430.125 188.35H416.049ZM435.115 170.92H443.976L439.658 156.557L435.115 170.92Z" fill="white"/>
<path id="Vector_9" fill-rule="evenodd" clip-rule="evenodd" d="M509.317 188.35V146.457H495.613V161.719L496.06 172.491H495.911L492.709 165.684L482.654 146.457H466.197V188.35H479.9V173.088L479.452 162.318H479.602L482.73 168.974L492.858 188.35H509.317Z" fill="white"/>
<path id="Vector_10" d="M534.407 188.949C530.435 188.949 526.933 188.126 523.905 186.48C520.877 184.784 518.494 182.341 516.757 179.149C515.069 175.907 514.224 171.992 514.224 167.404C514.224 162.815 515.118 158.926 516.905 155.734C518.742 152.492 521.349 150.049 524.725 148.403C528.101 146.707 532.123 145.86 536.789 145.86C541.904 145.86 546.198 146.981 549.674 149.226C553.148 151.42 555.432 154.562 556.524 158.651L543.641 162.092C543.194 159.948 542.4 158.527 541.258 157.828C540.116 157.08 538.8 156.706 537.311 156.706C535.673 156.706 534.233 157.105 532.991 157.904C531.801 158.651 530.857 159.823 530.161 161.419C529.515 162.965 529.193 164.961 529.193 167.404C529.193 169.898 529.515 171.992 530.161 173.687C530.807 175.334 531.775 176.556 533.067 177.354C534.407 178.151 536.07 178.55 538.055 178.55C539.049 178.55 539.917 178.426 540.662 178.175C541.456 177.877 542.127 177.502 542.673 177.055C543.22 176.556 543.616 176.007 543.864 175.408C544.162 174.759 544.311 174.062 544.311 173.314V173.088H536.566V165.534H556.226V188.35H546.918L546.472 182.215C545.478 184.062 544.014 185.657 542.077 187.004C540.141 188.3 537.584 188.949 534.407 188.949Z" fill="white"/>
<path id="Vector_11" d="M557.594 188.35L572.415 146.457H590.436L605.182 188.35H590.362L588.202 180.644H573.903L571.669 188.35H557.594ZM576.659 170.92H585.522L581.201 156.557L576.659 170.92Z" fill="white"/>
</g>
<path id="whitenet" fill-rule="evenodd" clip-rule="evenodd" d="M317.836 30.0171C313.869 35.6826 312.029 42.3884 312.316 49.0187C316.968 54.2488 319.933 61.0178 320.356 68.4686C320.363 68.4763 320.371 68.484 320.378 68.4917C320.384 68.4988 320.391 68.5058 320.397 68.5129L320.409 68.5255L320.434 68.4985L320.461 68.4686C320.884 61.0178 323.85 54.2488 328.501 49.0187C328.789 42.3868 326.948 35.6793 322.979 30.0131C322.979 30.0131 321.838 29.9666 324.231 30.049C327.862 35.3846 329.678 41.5929 329.678 47.8011C335.085 42.3679 342.459 38.9101 350.634 38.597V38.5737C350.634 36.9918 350.513 35.4381 350.281 33.9216C350.694 34.0285 351.105 34.1371 351.515 34.2474C351.721 35.6984 351.827 37.1815 351.827 38.6897C359.799 38.6897 367.069 41.7058 372.569 46.6643C372.501 44.8991 372.279 43.1389 371.902 41.4056L373.769 42.2266V50.5991C373.166 57.6718 370.171 64.5776 364.783 69.9901C370.171 75.4025 373.166 82.3082 373.769 89.3811V97.7691C376.985 96.3319 380.067 94.8314 382.999 93.3049L383 93.3053C366.121 102.092 344.309 110.004 320.492 110C296.679 109.996 274.874 102.081 258 93.2903C260.909 94.8059 263.965 96.2946 267.152 97.7225V90.3571L267.158 90.3641C267.558 82.9507 270.576 75.6528 276.212 69.9899C270.576 64.3269 267.558 57.0294 267.158 49.616L267.152 49.6231V42.25L269.022 41.4272C268.637 43.1817 268.41 44.9644 268.34 46.7518C273.841 41.7933 281.112 38.7772 289.082 38.7772C289.082 37.2441 289.192 35.737 289.405 34.2631C289.837 34.1467 290.27 34.0322 290.705 33.9196C290.473 35.4369 290.352 36.9912 290.352 38.5739V38.5971C298.528 38.9103 305.901 42.368 311.308 47.8013C311.308 41.593 313.123 35.3848 316.754 30.0489C319.115 29.9676 317.836 30.0171 317.836 30.0171ZM312.233 90.9559C311.947 97.5889 313.788 104.298 317.759 109.965C318.667 109.988 319.578 110 320.491 110C321.293 110 322.091 109.991 322.887 109.974C326.863 104.305 328.706 97.5925 328.419 90.9559C323.767 85.7257 320.801 78.9565 320.379 71.5057C320.361 71.4868 320.344 71.4677 320.326 71.4488C320.309 71.4677 320.291 71.4868 320.274 71.5057C319.851 78.9565 316.885 85.7257 312.233 90.9559ZM318.429 70.0638C311.032 70.4812 304.312 73.4047 299.12 77.9912C291.251 78.3305 283.274 75.6708 277.084 70.0122C283.274 64.3536 291.251 61.694 299.12 62.0333C304.312 66.6197 311.032 69.5434 318.429 69.9606C318.447 69.9778 318.466 69.995 318.486 70.0122C318.478 70.0184 318.472 70.0244 318.465 70.0303L318.429 70.0638ZM311.625 90.4727C306.217 96.3175 298.559 100.086 290.01 100.428C290.355 91.9582 294.158 84.3712 300.058 79.0133C307.112 78.6113 314.06 75.9279 319.676 70.963L319.719 70.9611C319.725 70.9608 319.733 70.9605 319.739 70.9604L319.754 70.9597C319.753 70.9854 319.752 71.0113 319.751 71.037C314.739 76.6013 312.031 83.4839 311.625 90.4727ZM321.759 68.726C326.718 63.1576 329.397 56.2701 329.799 49.276C335.15 43.4268 342.727 39.6565 351.185 39.3135C350.843 47.7893 347.081 55.3822 341.243 60.7439C334.264 61.146 327.39 63.8315 321.833 68.8001L321.757 68.8034L321.759 68.726ZM341.746 61.961C336.527 66.6223 329.772 69.5935 322.336 70.0176L322.229 70.0235L322.28 70.0699L322.229 70.1165L322.275 70.119L322.336 70.1224C329.772 70.5465 336.527 73.5177 341.746 78.179C349.657 78.5237 357.676 75.8208 363.898 70.0699C357.676 64.3192 349.657 61.6162 341.746 61.961ZM351.185 100.826C350.843 92.3505 347.081 84.7573 341.243 79.3959C334.264 78.9937 327.39 76.3083 321.833 71.3395L321.757 71.3364L321.759 71.4139C326.718 76.9822 329.398 83.8694 329.799 90.864C335.15 96.7129 342.727 100.483 351.185 100.826ZM300.049 60.9682C294.155 55.6417 290.355 48.0985 290.01 39.6782C298.551 40.019 306.203 43.7645 311.607 49.5754C312.012 56.5238 314.719 63.3661 319.726 68.898L319.729 68.9749L319.71 68.974L319.651 68.9718C314.039 64.0355 307.098 61.3677 300.049 60.9682ZM350.305 106.062C342.079 108.191 333.372 109.612 324.348 109.931C327.9 104.635 329.677 98.4944 329.677 92.354C335.084 97.7873 342.457 101.245 350.633 101.558V101.581C350.633 103.104 350.522 104.599 350.305 106.062ZM290.678 106.051C298.904 108.184 307.61 109.608 316.635 109.93C313.084 104.634 311.308 98.494 311.308 92.354C305.901 97.7873 298.528 101.245 290.352 101.558V101.581C290.352 103.1 290.462 104.593 290.678 106.051ZM268.182 91.8471C273.606 97.1172 280.994 100.36 289.135 100.36H289.157C289.47 92.1464 292.911 84.7382 298.319 79.305C290.671 79.305 283.024 76.5116 277.022 70.9247L277.006 70.9412C271.249 76.7252 268.308 84.267 268.182 91.8471ZM363.978 70.9412C369.735 76.7252 372.676 84.267 372.802 91.8471C367.378 97.1172 359.99 100.36 351.849 100.36H351.827C351.514 92.1464 348.073 84.7382 342.665 79.305C350.313 79.305 357.96 76.5116 363.962 70.9247L363.978 70.9412ZM351.827 39.7951H351.849C359.99 39.7951 367.378 43.0383 372.802 48.3089C372.676 55.889 369.735 63.4306 363.978 69.2147L363.962 69.231C357.96 63.6442 350.313 60.8508 342.665 60.8508C348.073 55.4176 351.514 48.0092 351.827 39.7951ZM268.182 48.3089C273.606 43.0383 280.994 39.7951 289.135 39.7951H289.157C289.47 48.0092 292.911 55.4175 298.319 60.8508C290.671 60.8508 283.024 63.6442 277.022 69.231L277.006 69.2147C271.249 63.4306 268.308 55.889 268.182 48.3089ZM371.96 98.5648C365.614 101.31 358.774 103.79 351.552 105.733C351.734 104.366 351.828 102.971 351.828 101.553C359.799 101.553 367.07 98.5372 372.57 93.5788C372.505 95.2514 372.302 96.9198 371.96 98.5648ZM269.02 98.5448C275.359 101.29 282.191 103.77 289.405 105.715C289.192 104.242 289.082 102.736 289.082 101.203C281.112 101.203 273.841 98.1873 268.34 93.229C268.41 95.0132 268.637 96.7933 269.02 98.5448Z" fill="white"/>
<g id="mrd-reditems">
<path id="ri" fill-rule="evenodd" clip-rule="evenodd" d="M84.3413 188.815V147.076H99.0372V149.733C101.729 147.393 105.219 146.223 109.51 146.223C111.481 146.223 113.17 146.479 114.577 146.99C116.042 147.504 117.28 148.299 118.294 149.38L109.764 160.903C109.313 160.392 108.666 159.994 107.821 159.709C107.032 159.367 106.132 159.197 105.118 159.197C103.204 159.197 101.712 159.794 100.642 160.989C99.5719 162.127 99.0372 163.835 99.0372 166.11V167.946L98.9528 178.038C98.9528 188.815 88.8516 188.815 84.3413 188.815Z" fill="#FE4A49"/>
<path id="dot0" d="M91.6957 210.606C95.7575 210.606 99.0501 207.305 99.0501 203.235C99.0501 199.165 95.7575 195.865 91.6957 195.865C87.6338 195.865 84.3413 199.165 84.3413 203.235C84.3413 207.305 87.6338 210.606 91.6957 210.606Z" fill="#FE4A49"/>
<path id="dot2" d="M488.092 129.701C490.674 129.701 492.611 130.25 493.901 131.348C495.241 132.444 495.911 134.09 495.911 136.284C495.911 138.429 495.241 140.05 493.901 141.147C492.611 142.245 490.674 142.793 488.092 142.793C485.56 142.793 483.648 142.245 482.358 141.147C481.116 140.05 480.496 138.429 480.496 136.284C480.496 134.09 481.116 132.444 482.358 131.348C483.648 130.25 485.56 129.701 488.092 129.701Z" fill="#FE4A49"/>
<path id="dot1" d="M351.024 205.109C348.492 205.109 346.581 204.56 345.289 203.462C344.049 202.366 343.427 200.719 343.427 198.525C343.427 196.381 344.049 194.76 345.289 193.663C346.581 192.566 348.492 192.017 351.024 192.017C353.605 192.017 355.542 192.566 356.832 193.663C358.174 194.76 358.844 196.381 358.844 198.525C358.844 200.719 358.174 202.366 356.832 203.462C355.542 204.56 353.605 205.109 351.024 205.109Z" fill="#FE4A49"/>
</g>
<g id="mrd-redbaja">
<path id="Vector_12" fill-rule="evenodd" clip-rule="evenodd" d="M373.177 42.2852C376.383 43.7107 379.457 45.1991 382.381 46.7135V92.9211C379.457 94.4344 376.383 95.9219 373.177 97.3467V42.2852Z" fill="#FE4A49"/>
<path id="Vector_13" fill-rule="evenodd" clip-rule="evenodd" d="M266.847 42.3082V97.3005C263.669 95.885 260.621 94.4088 257.72 92.9063V46.6992C260.621 45.1979 263.669 43.7224 266.847 42.3082Z" fill="#FE4A49"/>
<path id="Vector_14" d="M317.395 30.1819C318.28 30.1602 319.169 30.1493 320.06 30.1494C320.884 30.1496 321.704 30.1591 322.523 30.1778C326.482 35.795 328.318 42.4443 328.031 49.0188C323.392 54.2036 320.434 60.9139 320.012 68.3001L319.985 68.3297C319.977 68.3387 319.968 68.3476 319.96 68.3566L319.949 68.344C319.935 68.3293 319.922 68.3147 319.908 68.3001C319.486 60.9139 316.529 54.2036 311.889 49.0188C311.603 42.4459 313.438 35.7982 317.395 30.1819Z" fill="#FE4A49"/>
<path id="Vector_15" d="M317.318 109.437C313.357 103.819 311.521 97.168 311.807 90.5926C316.446 85.4077 319.404 78.6971 319.825 71.3109C319.843 71.2921 319.861 71.2732 319.878 71.2544C319.895 71.2732 319.912 71.2921 319.93 71.3109C320.352 78.6971 323.31 85.4077 327.948 90.5926C328.235 97.1716 326.397 103.825 322.432 109.445C321.638 109.462 320.842 109.471 320.042 109.471C319.132 109.471 318.223 109.459 317.318 109.437Z" fill="#FE4A49"/>
<path id="Vector_16" d="M317.985 69.8815C310.608 70.2953 303.907 73.1935 298.729 77.7402C290.881 78.0766 282.926 75.4399 276.752 69.8304C282.926 64.2208 290.881 61.5842 298.729 61.9206C303.907 66.4673 310.608 69.3657 317.985 69.7793C318.004 69.7963 318.023 69.8133 318.043 69.8304C318.035 69.8365 318.029 69.8425 318.022 69.8483C318.01 69.8594 317.998 69.8706 317.985 69.8815Z" fill="#FE4A49"/>
<path id="Vector_17" d="M289.643 99.9825C298.169 99.6431 305.807 95.9077 311.2 90.1136C311.605 83.1853 314.306 76.3624 319.304 70.8463C319.306 70.8208 319.307 70.7952 319.308 70.7697L319.293 70.7703C319.286 70.7704 319.279 70.7708 319.272 70.7711L319.23 70.7729C313.628 75.6948 306.7 78.355 299.664 78.7534C293.781 84.065 289.988 91.5862 289.643 99.9825Z" fill="#FE4A49"/>
<path id="Vector_18" d="M321.307 68.5553C326.253 63.0352 328.925 56.2074 329.326 49.2738C334.662 43.4753 342.218 39.7377 350.654 39.3977C350.312 47.8 346.56 55.3271 340.739 60.6424C333.778 61.041 326.923 63.7032 321.381 68.6288C321.356 68.6299 321.33 68.631 321.304 68.6321C321.305 68.6064 321.306 68.5807 321.307 68.5553Z" fill="#FE4A49"/>
<path id="Vector_19" d="M321.882 69.8357C329.298 69.4153 336.035 66.4698 341.239 61.8489C349.13 61.5071 357.127 64.1866 363.332 69.8876C357.127 75.5886 349.13 78.2681 341.239 77.9263C336.035 73.3054 329.298 70.36 321.882 69.9395C321.865 69.9387 321.847 69.9376 321.83 69.9367L321.821 69.9362L321.775 69.9338L321.826 69.8876L321.775 69.8415L321.882 69.8357Z" fill="#FE4A49"/>
<path id="Vector_20" d="M350.654 100.378C350.312 91.9751 346.56 84.4477 340.739 79.1327C333.778 78.734 326.923 76.0719 321.381 71.1462L321.304 71.1431L321.307 71.2199C326.253 76.7399 328.925 83.5675 329.326 90.5015C334.662 96.2997 342.218 100.037 350.654 100.378Z" fill="#FE4A49"/>
<path id="Vector_21" d="M289.643 39.7592C289.988 48.1066 293.777 55.5844 299.656 60.8647C306.686 61.2608 313.608 63.9055 319.205 68.799C319.224 68.7997 319.244 68.8004 319.264 68.8012L319.282 68.802C319.281 68.7767 319.281 68.7512 319.28 68.7258C314.286 63.2419 311.587 56.4589 311.183 49.5707C305.793 43.8101 298.162 40.0971 289.643 39.7592Z" fill="#FE4A49"/>
<path id="Vector_22" d="M349.752 34.0521C341.519 31.9337 332.805 30.5226 323.772 30.2133C327.393 35.5027 329.204 41.6572 329.204 47.8116C334.596 42.4256 341.951 38.9977 350.104 38.6873V38.6643C350.104 37.0959 349.983 35.5555 349.752 34.0521Z" fill="#FE4A49"/>
<path id="Vector_23" d="M323.889 109.404C332.888 109.087 341.572 107.678 349.776 105.567C349.992 104.118 350.103 102.635 350.103 101.126V101.103C341.949 100.793 334.595 97.3648 329.203 91.9785C329.203 98.0658 327.431 104.153 323.889 109.404Z" fill="#FE4A49"/>
<path id="Vector_24" d="M290.309 105.557C298.513 107.671 307.196 109.083 316.196 109.402C312.655 104.152 310.884 98.0653 310.884 91.9785C305.492 97.3648 298.138 100.793 289.984 101.103V101.126C289.984 102.631 290.094 104.111 290.309 105.557Z" fill="#FE4A49"/>
<path id="Vector_25" d="M316.315 30.2133C312.694 35.5029 310.884 41.6573 310.884 47.8118C305.492 42.4257 298.138 38.9979 289.984 38.6874V38.6644C289.984 37.0954 290.105 35.5546 290.337 34.0505C298.569 31.9329 307.284 30.5224 316.315 30.2133Z" fill="#FE4A49"/>
<path id="Vector_26" d="M267.875 91.476C273.284 96.7004 280.652 99.9155 288.771 99.9155H288.793C289.105 91.7727 292.537 84.4287 297.93 79.0425C290.303 79.0425 282.677 76.2734 276.691 70.7349L276.675 70.7513C270.934 76.4851 268 83.9615 267.875 91.476Z" fill="#FE4A49"/>
<path id="Vector_27" d="M351.293 99.9155H351.316C359.435 99.9155 366.803 96.7004 372.212 91.476C372.087 83.9615 369.153 76.4851 363.412 70.7513L363.396 70.7349C357.41 76.2734 349.784 79.0425 342.157 79.0425C347.55 84.4287 350.982 91.7727 351.293 99.9155Z" fill="#FE4A49"/>
<path id="Vector_28" d="M351.316 39.8751C359.435 39.8751 366.803 43.0902 372.212 48.3151C372.087 55.8295 369.153 63.3057 363.412 69.0398L363.396 69.0559C357.41 63.5175 349.784 60.7483 342.157 60.7483C347.55 55.3623 350.982 48.018 351.293 39.8751H351.316Z" fill="#FE4A49"/>
<path id="Vector_29" d="M288.793 39.8751H288.771C280.652 39.8751 273.284 43.0902 267.875 48.3151C268 55.8295 270.934 63.3057 276.675 69.0398L276.691 69.0559C282.677 63.5175 290.303 60.7483 297.93 60.7483C292.537 55.3622 289.105 48.018 288.793 39.8751Z" fill="#FE4A49"/>
<path id="Vector_30" d="M371.314 41.4717C364.991 38.7536 358.176 36.2989 350.983 34.3755C351.187 35.8139 351.294 37.2842 351.294 38.7793C359.244 38.7793 366.494 41.7693 371.979 46.6848C371.912 44.9349 371.69 43.1899 371.314 41.4717Z" fill="#FE4A49"/>
<path id="Vector_31" d="M351.019 105.242C358.222 103.315 365.043 100.857 371.372 98.1356C371.714 96.5049 371.915 94.8509 371.98 93.1928C366.495 98.1083 359.244 101.098 351.294 101.098C351.294 102.503 351.201 103.886 351.019 105.242Z" fill="#FE4A49"/>
<path id="Vector_32" d="M268.711 98.1157C275.032 100.837 281.846 103.296 289.04 105.224C288.828 103.764 288.719 102.27 288.719 100.751C280.769 100.751 273.519 97.7613 268.033 92.8459C268.102 94.6147 268.328 96.3794 268.711 98.1157Z" fill="#FE4A49"/>
<path id="Vector_33" d="M289.04 34.3911C281.847 36.3174 275.034 38.7742 268.712 41.4932C268.328 43.2324 268.102 44.9997 268.033 46.7716C273.519 41.8561 280.769 38.8661 288.719 38.8661C288.719 37.3463 288.828 35.8522 289.04 34.3911Z" fill="#FE4A49"/>
<path id="Vector_34" d="M275.883 69.8082C270.262 64.1944 267.252 56.9601 266.854 49.611C261.938 54.915 258.935 62.0113 258.935 69.8082C258.935 77.6053 261.938 84.7016 266.854 90.0059C267.252 82.6567 270.262 75.4221 275.883 69.8082Z" fill="#FE4A49"/>
<path id="Vector_35" d="M381.164 69.8084C381.164 77.6054 378.159 84.7016 373.245 90.0059C372.846 82.6567 369.836 75.4223 364.215 69.8084C369.836 64.1945 372.846 56.9601 373.245 49.611C378.159 54.915 381.164 62.0113 381.164 69.8084Z" fill="#FE4A49"/>
<path id="Vector_36" d="M253.094 46.7899C251.385 46.7899 250 48.1733 250 49.8799V89.6802C250 91.3866 251.385 92.7701 253.094 92.7701H256.591V46.7899H253.094Z" fill="#FE4A49"/>
<path id="Vector_37" d="M387.008 46.82C388.717 46.82 390.101 48.2036 390.101 49.9101V89.7103C390.101 91.4167 388.717 92.8002 387.008 92.8002H383.511V46.82H387.008Z" fill="#FE4A49"/>
</g>
<g id="mrd-screen">
<path id="Vector_38" d="M253.094 46.7899C251.385 46.7899 250 48.1733 250 49.8799V89.6802C250 91.3866 251.385 92.7701 253.094 92.7701H256.591V46.7899H253.094Z" fill="black" fill-opacity="0.7"/>
<path id="Vector_39" d="M387.008 46.8199C388.717 46.8199 390.101 48.2036 390.101 49.9101V89.7102C390.101 91.4166 388.717 92.8002 387.008 92.8002H383.511V46.8199H387.008Z" fill="black" fill-opacity="0.7"/>
<path id="Vector_40" d="M349.752 34.0521C341.519 31.9337 332.805 30.5226 323.772 30.2133C327.393 35.5027 329.204 41.6572 329.204 47.8116C334.596 42.4256 341.951 38.9977 350.104 38.6873V38.6643C350.104 37.0959 349.983 35.5555 349.752 34.0521Z" fill="black" fill-opacity="0.3"/>
<path id="Vector_41" d="M323.889 109.404C332.888 109.087 341.572 107.678 349.776 105.567C349.992 104.118 350.103 102.635 350.103 101.126V101.103C341.949 100.793 334.595 97.3648 329.203 91.9785C329.203 98.0658 327.431 104.153 323.889 109.404Z" fill="black" fill-opacity="0.3"/>
<path id="Vector_42" d="M290.309 105.557C298.513 107.671 307.196 109.083 316.196 109.402C312.655 104.152 310.884 98.0653 310.884 91.9785C305.492 97.3648 298.138 100.793 289.984 101.103V101.126C289.984 102.631 290.094 104.111 290.309 105.557Z" fill="black" fill-opacity="0.3"/>
<path id="Vector_43" d="M316.315 30.2133C312.694 35.5029 310.884 41.6573 310.884 47.8118C305.492 42.4257 298.138 38.9979 289.984 38.6874V38.6644C289.984 37.0954 290.105 35.5546 290.337 34.0505C298.569 31.9329 307.284 30.5224 316.315 30.2133Z" fill="black" fill-opacity="0.3"/>
<path id="Vector_44" d="M267.875 91.476C273.284 96.7004 280.652 99.9155 288.771 99.9155H288.793C289.105 91.7727 292.537 84.4287 297.93 79.0425C290.303 79.0425 282.677 76.2734 276.691 70.7349L276.675 70.7513C270.934 76.4851 268 83.9615 267.875 91.476Z" fill="black" fill-opacity="0.3"/>
<path id="Vector_45" d="M351.293 99.9155H351.316C359.435 99.9155 366.803 96.7004 372.212 91.476C372.087 83.9615 369.153 76.4851 363.412 70.7513L363.396 70.7349C357.41 76.2734 349.784 79.0425 342.157 79.0425C347.55 84.4287 350.982 91.7727 351.293 99.9155Z" fill="black" fill-opacity="0.3"/>
<path id="Vector_46" d="M351.316 39.8751C359.435 39.8751 366.803 43.0902 372.212 48.3151C372.087 55.8295 369.153 63.3057 363.412 69.0398L363.396 69.0559C357.41 63.5175 349.784 60.7483 342.157 60.7483C347.55 55.3623 350.982 48.018 351.293 39.8751H351.316Z" fill="black" fill-opacity="0.3"/>
<path id="Vector_47" d="M288.793 39.8751H288.771C280.652 39.8751 273.284 43.0902 267.875 48.3151C268 55.8295 270.934 63.3057 276.675 69.0398L276.691 69.0559C282.677 63.5175 290.303 60.7483 297.93 60.7483C292.537 55.3622 289.105 48.018 288.793 39.8751Z" fill="black" fill-opacity="0.3"/>
<path id="Vector_48" d="M371.314 41.4717C364.991 38.7536 358.176 36.2989 350.983 34.3755C351.187 35.8139 351.294 37.2842 351.294 38.7793C359.244 38.7793 366.494 41.7693 371.979 46.6848C371.912 44.9349 371.69 43.1899 371.314 41.4717Z" fill="black" fill-opacity="0.4"/>
<path id="Vector_49" d="M351.019 105.241C358.222 103.315 365.043 100.856 371.372 98.1354C371.714 96.5047 371.915 94.8507 371.98 93.1926C366.495 98.1081 359.244 101.098 351.294 101.098C351.294 102.503 351.201 103.886 351.019 105.241Z" fill="black" fill-opacity="0.4"/>
<path id="Vector_50" d="M268.711 98.1157C275.032 100.837 281.846 103.296 289.04 105.224C288.828 103.764 288.719 102.27 288.719 100.751C280.769 100.751 273.519 97.7613 268.033 92.8459C268.102 94.6147 268.328 96.3794 268.711 98.1157Z" fill="black" fill-opacity="0.4"/>
<path id="Vector_51" d="M289.04 34.391C281.847 36.3173 275.034 38.7741 268.712 41.4931C268.328 43.2323 268.102 44.9996 268.033 46.7715C273.519 41.856 280.769 38.866 288.719 38.866C288.719 37.3462 288.828 35.8522 289.04 34.391Z" fill="black" fill-opacity="0.4"/>
<path id="Vector_52" d="M275.883 69.8082C270.262 64.1944 267.252 56.9601 266.854 49.611C261.938 54.915 258.935 62.0113 258.935 69.8082C258.935 77.6053 261.938 84.7016 266.854 90.0059C267.252 82.6567 270.262 75.4221 275.883 69.8082Z" fill="black" fill-opacity="0.4"/>
<path id="Vector_53" d="M381.164 69.8084C381.164 77.6054 378.159 84.7016 373.245 90.0059C372.846 82.6567 369.836 75.4223 364.215 69.8084C369.836 64.1945 372.846 56.9601 373.245 49.611C378.159 54.915 381.164 62.0113 381.164 69.8084Z" fill="black" fill-opacity="0.4"/>
<path id="Vector_54" fill-rule="evenodd" clip-rule="evenodd" d="M373.177 42.2852C376.383 43.7107 379.457 45.1991 382.381 46.7135V92.9211C379.457 94.4343 376.383 95.9219 373.177 97.3466V42.2852Z" fill="#1E1E1E" fill-opacity="0.6"/>
<path id="Vector_55" fill-rule="evenodd" clip-rule="evenodd" d="M266.847 42.3082V97.3005C263.669 95.885 260.621 94.4088 257.72 92.9063V46.6992C260.621 45.1979 263.669 43.7224 266.847 42.3082Z" fill="#1E1E1E" fill-opacity="0.6"/>
</g>
</g>
</svg>
