<svg width="440" height="200" viewBox="0 0 440 200" fill="none" xmlns="http://www.w3.org/2000/svg">
<g id="logo-bol">
<rect width="440" height="200" fill="#272727"/>
<g id="bol-whites">
<path id="Vector" d="M99.1106 83.5269C99.1106 83.9747 99.1234 84.4224 99.1491 84.8695C99.4965 85.2487 99.8309 85.6401 100.152 86.0427C100.094 85.5309 100.054 85.0175 100.032 84.5035C99.7341 84.1692 99.4269 83.8435 99.1106 83.5269Z" fill="white"/>
<path id="Vector_2" d="M112.714 83.5269C112.398 83.8435 112.09 84.1692 111.793 84.5035C111.77 85.0176 111.73 85.5309 111.673 86.0427C111.994 85.6401 112.328 85.2487 112.676 84.8695C112.701 84.4224 112.714 83.9747 112.714 83.5269Z" fill="white"/>
<path id="Vector_3" d="M105.912 67.0929C105.699 67.3062 105.491 67.5226 105.288 67.742C105.501 67.9559 105.709 68.1729 105.912 68.3931C106.115 68.1729 106.323 67.9559 106.537 67.742C106.333 67.5226 106.125 67.3062 105.912 67.0929Z" fill="white"/>
<path id="Vector_4" d="M90.8327 93.1923C90.3859 93.1666 89.9386 93.1538 89.4912 93.1538C89.8075 93.4703 90.1329 93.7778 90.467 94.0758C90.9806 94.0982 91.4936 94.1382 92.005 94.1958C91.6026 93.8747 91.2116 93.54 90.8327 93.1923Z" fill="white"/>
<path id="Vector_5" d="M105.895 99.0601C105.776 99.0601 105.657 99.059 105.538 99.0571C105.455 99.1425 105.372 99.2274 105.288 99.3119C105.491 99.5312 105.699 99.7477 105.912 99.961C105.912 99.6593 105.906 99.359 105.895 99.0601Z" fill="white"/>
<path id="Vector_6" d="M121.959 138.732C121.671 139.03 121.375 139.32 121.071 139.602C121.491 139.625 121.912 139.636 122.333 139.636C122.631 139.338 122.921 139.032 123.202 138.719C122.788 138.735 122.373 138.739 121.959 138.732Z" fill="white"/>
<path id="Vector_7" fill-rule="evenodd" clip-rule="evenodd" d="M106.887 99.0392C110.925 95.4332 115.92 93.4842 120.992 93.1923C125.233 89.3011 127.968 83.7905 128.216 77.6391C122.07 77.8881 116.564 80.6245 112.675 84.8695C112.701 84.4224 112.714 83.9747 112.714 83.5269C116.719 79.5188 122.18 76.9678 128.235 76.7369V76.7197C128.235 70.6853 125.844 65.2096 121.959 61.1897C116.372 61.2828 110.812 63.4629 106.549 67.7299L106.537 67.742C106.333 67.5226 106.125 67.3062 105.912 67.0929C110.125 62.8763 115.555 60.6186 121.071 60.3199C117.09 56.6328 111.764 54.3793 105.912 54.3793C100.06 54.3793 94.7347 56.6328 90.7539 60.3199C96.2695 60.6186 101.699 62.8763 105.912 67.0929C105.699 67.3062 105.491 67.5226 105.288 67.742L105.276 67.7299C101.012 63.4629 95.4529 61.2828 89.8654 61.1896C85.9803 65.2096 83.5896 70.6853 83.5896 76.7197V76.7369C89.6445 76.9678 95.1055 79.5188 99.1105 83.5269C99.1105 83.9747 99.1233 84.4224 99.149 84.8695C95.2609 80.6245 89.7547 77.8881 83.6082 77.6391C83.857 83.7905 86.5911 89.3011 90.8328 93.1923C90.386 93.1666 89.9387 93.1538 89.4913 93.1538C85.4863 89.1456 82.9374 83.6803 82.7066 77.6206H82.6895C76.6599 77.6206 71.1886 80.0131 67.1718 83.9014C67.2649 89.4933 69.4432 95.057 73.7068 99.324L73.7189 99.3361C78.1636 95.2145 83.8274 93.1538 89.4913 93.1538C89.8076 93.4703 90.133 93.7778 90.4671 94.0758C84.7185 93.8256 78.8917 95.7873 74.3695 99.961C78.8917 104.135 84.7185 106.096 90.4671 105.846C94.2598 102.463 99.1686 100.307 104.572 99.999C104.585 99.9864 104.599 99.9737 104.613 99.961C104.599 99.9483 104.585 99.9356 104.572 99.9229C99.1686 99.6151 94.2598 97.4587 90.4671 94.0758C90.9807 94.0982 91.4937 94.1382 92.0051 94.1958C95.2043 96.7491 99.1202 98.441 103.402 98.9205C100.036 96.2293 96.0713 94.6544 92.0051 94.1958C91.6027 93.8747 91.2117 93.54 90.8328 93.1923C95.9048 93.4843 100.899 95.4332 104.937 99.0392C104.956 99.04 104.975 99.0408 104.994 99.0416C104.993 99.0228 104.992 99.0041 104.991 98.9854C101.388 94.9441 99.4407 89.9455 99.149 84.8695C99.4964 85.2487 99.8308 85.6401 100.152 86.0427C100.61 90.1122 102.183 94.0797 104.873 97.4491C104.393 93.1636 102.703 89.2445 100.152 86.0427C100.094 85.5309 100.054 85.0175 100.032 84.5035C103.412 88.2993 105.567 93.2119 105.874 98.6194C105.887 98.6332 105.899 98.647 105.912 98.6607C105.917 98.6559 105.921 98.6511 105.926 98.6462C105.934 98.6373 105.942 98.6283 105.95 98.6193C106.258 93.2119 108.412 88.2993 111.793 84.5035C111.77 85.0176 111.73 85.5309 111.673 86.0427C109.121 89.2445 107.431 93.1635 106.952 97.4491C109.641 94.0797 111.215 90.1122 111.673 86.0427C111.994 85.6401 112.328 85.2487 112.675 84.8695C112.384 89.9455 110.436 94.9441 106.833 98.9854L106.832 99.016C106.832 99.0211 106.831 99.0261 106.831 99.0312L106.831 99.0416C106.85 99.0408 106.868 99.04 106.887 99.0392ZM105.912 68.3931C105.709 68.1729 105.501 67.9559 105.288 67.742C101.17 72.1902 99.1105 77.8586 99.1105 83.5269C99.4268 83.8435 99.734 84.1692 100.032 84.5035C99.7818 78.7503 101.742 72.9189 105.912 68.3931ZM105.912 68.3931C110.082 72.9189 112.043 78.7503 111.793 84.5035C112.09 84.1692 112.398 83.8435 112.714 83.5269C112.714 77.8586 110.655 72.1902 106.537 67.742C106.323 67.9559 106.115 68.1729 105.912 68.3931ZM103.402 101.001C100.036 103.693 96.0713 105.268 92.0051 105.726C95.2043 103.173 99.1202 101.481 103.402 101.001ZM89.4913 106.768C83.8274 106.768 78.1636 104.707 73.7189 100.586L73.7068 100.598C69.4432 104.865 67.2649 110.429 67.1718 116.021C71.1886 119.909 76.6599 122.301 82.6895 122.301H82.7066C82.9374 116.242 85.4863 110.776 89.4913 106.768ZM82.6895 123.202C76.731 123.202 71.2967 120.956 67.1855 117.264C67.3952 122.689 69.569 128.051 73.7068 132.192C77.8446 136.333 83.2027 138.509 88.6227 138.719C84.9336 134.604 82.6895 129.165 82.6895 123.202ZM89.4913 139.636C83.5481 139.636 77.6049 137.367 73.0704 132.829C68.5358 128.291 66.2686 122.343 66.2686 116.395C62.0661 112.189 59.4668 106.379 59.4668 99.961C59.4668 93.5431 62.0661 87.7328 66.2686 83.5269C66.2686 77.579 68.5358 71.631 73.0704 67.0929C77.6049 62.5548 83.5481 60.2857 89.4913 60.2857C93.6938 56.0799 99.4995 53.4785 105.912 53.4785C112.325 53.4785 118.131 56.0799 122.333 60.2857C128.276 60.2857 134.22 62.5548 138.754 67.0929C143.289 71.631 145.556 77.579 145.556 83.5269C149.758 87.7328 152.358 93.5431 152.358 99.961C152.358 106.379 149.758 112.189 145.556 116.395C145.556 122.343 143.289 128.291 138.754 132.829C134.22 137.367 128.276 139.636 122.333 139.636C122.631 139.338 122.921 139.032 123.202 138.719C128.622 138.509 133.98 136.333 138.118 132.192C142.255 128.051 144.429 122.689 144.639 117.264C140.528 120.956 135.094 123.202 129.135 123.202C129.135 129.165 126.891 134.604 123.202 138.719C122.788 138.735 122.373 138.739 121.959 138.732C125.844 134.712 128.235 129.237 128.235 123.202V123.185C122.18 122.954 116.719 120.403 112.714 116.395C112.714 122.063 110.655 127.732 106.537 132.18L106.549 132.192C110.812 136.459 116.372 138.639 121.959 138.732C121.671 139.03 121.375 139.32 121.071 139.602C115.555 139.303 110.125 137.046 105.912 132.829C101.699 137.046 96.2695 139.303 90.7539 139.602C94.7347 143.289 100.06 145.543 105.912 145.543C111.764 145.543 117.09 143.289 121.071 139.602C121.491 139.625 121.912 139.636 122.333 139.636C118.131 143.842 112.325 146.443 105.912 146.443C99.4995 146.443 93.6938 143.842 89.4913 139.636ZM105.912 131.529C110.082 127.003 112.043 121.172 111.793 115.418C108.412 111.623 106.258 106.71 105.95 101.303C105.938 101.289 105.925 101.275 105.912 101.261C105.899 101.275 105.887 101.289 105.874 101.303C105.567 106.71 103.412 111.623 100.032 115.418C100.054 114.904 100.094 114.391 100.152 113.879C102.703 110.678 104.393 106.758 104.873 102.473C102.183 105.842 100.61 109.81 100.152 113.879C99.8309 114.282 99.4964 114.673 99.149 115.053C99.4407 109.976 101.388 104.978 104.991 100.937C104.992 100.918 104.993 100.899 104.994 100.88C104.975 100.881 104.956 100.882 104.937 100.883C100.899 104.489 95.9048 106.438 90.8328 106.73C86.5911 110.621 83.857 116.131 83.6082 122.283C89.7547 122.034 95.2609 119.298 99.149 115.053C99.1233 115.5 99.1105 115.947 99.1105 116.395C95.1055 120.403 89.6445 122.954 83.5896 123.185V123.202C83.5896 129.237 85.9803 134.712 89.8654 138.732C95.4529 138.639 101.012 136.459 105.276 132.192L105.288 132.18C101.17 127.732 99.1105 122.063 99.1105 116.395C99.4268 116.078 99.734 115.753 100.032 115.418C99.7818 121.172 101.742 127.003 105.912 131.529ZM129.118 122.301H129.135C135.165 122.301 140.636 119.909 144.653 116.021C144.56 110.429 142.381 104.865 138.118 100.598L138.106 100.586C133.661 104.707 127.997 106.768 122.333 106.768C126.338 110.776 128.887 116.242 129.118 122.301ZM120.992 106.73C115.92 106.438 110.925 104.489 106.887 100.883L106.864 100.882C106.853 100.881 106.842 100.881 106.831 100.88C106.832 100.899 106.832 100.918 106.833 100.937C110.436 104.978 112.384 109.976 112.675 115.053C116.564 119.298 122.07 122.034 128.216 122.283C127.968 116.131 125.233 110.621 120.992 106.73ZM108.422 101.001C112.704 101.481 116.62 103.173 119.819 105.726C115.753 105.268 111.789 103.693 108.422 101.001ZM121.357 105.846C117.565 102.463 112.656 100.307 107.253 99.999C107.239 99.9864 107.225 99.9737 107.211 99.961C107.225 99.9483 107.239 99.9356 107.253 99.9229C112.656 99.6151 117.565 97.4587 121.357 94.0758C127.106 93.8256 132.933 95.7874 137.455 99.961C132.933 104.135 127.106 106.096 121.357 105.846ZM138.754 99.961C142.967 104.178 145.223 109.611 145.522 115.131C149.206 111.147 151.458 105.817 151.458 99.961C151.458 94.1046 149.206 88.7745 145.522 84.7905C145.223 90.3105 142.967 95.7443 138.754 99.961ZM138.105 99.3361C133.661 95.2145 127.997 93.1538 122.333 93.1538C126.338 89.1456 128.887 83.6803 129.118 77.6206H129.135C135.165 77.6206 140.636 80.0131 144.653 83.9014C144.56 89.4933 142.381 95.057 138.118 99.324L138.105 99.3361ZM108.422 98.9205C111.789 96.2292 115.753 94.6544 119.819 94.1958C116.62 96.7491 112.704 98.441 108.422 98.9205ZM66.3027 84.7905C66.6012 90.3105 68.8571 95.7443 73.0704 99.961C68.8571 104.178 66.6012 109.611 66.3027 115.131C62.6185 111.147 60.3669 105.817 60.3669 99.961C60.3669 94.1046 62.6185 88.7745 66.3027 84.7905ZM106.952 102.473C109.641 105.842 111.215 109.81 111.673 113.879C109.121 110.678 107.431 106.758 106.952 102.473ZM129.135 76.7197C129.135 70.7565 126.891 65.3178 123.202 61.2034C128.622 61.4133 133.98 63.5888 138.118 67.7299C142.255 71.871 144.429 77.2333 144.639 82.6576C140.528 78.9656 135.094 76.7197 129.135 76.7197ZM88.6227 61.2033C84.9336 65.3178 82.6895 70.7565 82.6895 76.7197C76.731 76.7197 71.2967 78.9656 67.1855 82.6576C67.3952 77.2333 69.569 71.871 73.7068 67.7299C77.8446 63.5888 83.2027 61.4133 88.6227 61.2033ZM105.895 99.0601C105.776 99.0601 105.657 99.059 105.538 99.0571C105.455 99.1425 105.372 99.2274 105.288 99.3119C105.491 99.5312 105.699 99.7477 105.912 99.961C105.912 99.6593 105.906 99.359 105.895 99.0601Z" fill="white"/>
<path id="Vector_8" d="M99.1106 116.395C99.4269 116.078 99.7341 115.753 100.032 115.418C100.054 114.904 100.094 114.391 100.152 113.879C99.831 114.282 99.4965 114.673 99.1491 115.053C99.1234 115.5 99.1106 115.947 99.1106 116.395Z" fill="white"/>
<path id="Vector_9" fill-rule="evenodd" clip-rule="evenodd" d="M203.646 126.978C205.822 127.96 208.188 128.451 210.746 128.451C214.609 128.451 218.008 127.551 220.946 125.751C223.883 123.952 226.168 121.497 227.801 118.389C229.487 115.226 230.33 111.654 230.33 107.673C230.33 103.638 229.487 100.039 227.801 96.8755C226.168 93.7126 223.883 91.2586 220.946 89.5135C218.008 87.7139 214.609 86.8141 210.746 86.8141C208.243 86.8141 205.904 87.2776 203.728 88.2047C202.823 88.5673 201.981 88.9958 201.198 89.4903V68H187V127.632H200.872V125.313C201.716 125.944 202.64 126.499 203.646 126.978ZM212.215 114.708C211.072 115.417 209.739 115.771 208.216 115.771C206.693 115.771 205.333 115.444 204.136 114.79C202.939 114.081 202.015 113.127 201.361 111.927C200.709 110.673 200.382 109.227 200.382 107.591C200.382 106.01 200.709 104.619 201.361 103.42C202.015 102.22 202.912 101.266 204.054 100.557C205.251 99.8476 206.611 99.4932 208.134 99.4932C209.658 99.4932 211.018 99.8476 212.215 100.557C213.412 101.266 214.336 102.247 214.989 103.501C215.642 104.701 215.968 106.064 215.968 107.591C215.968 109.173 215.642 110.591 214.989 111.845C214.336 113.045 213.412 113.999 212.215 114.708Z" fill="white"/>
<path id="Vector_10" fill-rule="evenodd" clip-rule="evenodd" d="M297.575 105.056V127.632H311.774V101.784C311.774 98.8388 311.122 96.2484 309.816 94.0126C308.565 91.7766 306.742 90.0316 304.349 88.7773C302.01 87.4685 299.235 86.8141 296.025 86.8141C292.924 86.8141 290.205 87.4685 287.865 88.7773C287.169 89.1506 286.516 89.5722 285.907 90.042V68H271.708V127.632H285.907V105.056C285.907 103.801 286.152 102.738 286.642 101.865C287.131 100.993 287.811 100.311 288.681 99.8204C289.606 99.3295 290.639 99.0842 291.782 99.0842C293.469 99.0842 294.856 99.6295 295.944 100.72C297.032 101.756 297.575 103.201 297.575 105.056Z" fill="white"/>
<path id="Vector_11" fill-rule="evenodd" clip-rule="evenodd" d="M326.056 125.751C328.94 127.551 332.231 128.451 335.93 128.451C338.432 128.451 340.717 127.987 342.784 127.06C344.075 126.481 345.218 125.775 346.212 124.94V127.633H360.165V87.6322H346.212V90.286C345.218 89.4434 344.075 88.7497 342.784 88.2048C340.717 87.2777 338.432 86.8142 335.93 86.8142C332.231 86.8142 328.94 87.714 326.056 89.5136C323.173 91.2587 320.916 93.7127 319.283 96.8756C317.652 100.039 316.835 103.638 316.835 107.673C316.835 111.654 317.652 115.226 319.283 118.389C320.916 121.498 323.173 123.952 326.056 125.751ZM344.579 113.481C343.165 115.008 341.288 115.772 338.949 115.772C337.481 115.772 336.147 115.417 334.95 114.708C333.754 113.999 332.829 113.045 332.176 111.845C331.524 110.591 331.197 109.173 331.197 107.591C331.197 106.065 331.524 104.701 332.176 103.501C332.883 102.247 333.808 101.266 334.95 100.557C336.147 99.8477 337.507 99.4933 339.031 99.4933C340.554 99.4933 341.886 99.8477 343.029 100.557C344.226 101.266 345.15 102.22 345.804 103.42C346.456 104.619 346.783 106.01 346.783 107.591C346.783 109.991 346.048 111.954 344.579 113.481Z" fill="white"/>
<path id="Vector_12" fill-rule="evenodd" clip-rule="evenodd" d="M373.918 99.4929V127.632H388.117V99.4929H396.929V87.6319H388.117V71.1082H373.918V87.6319H365.105V99.4929H373.918Z" fill="white"/>
</g>
<g id="ol">
<path id="Vector_13" d="M268.801 148.489C267.726 148.489 266.751 148.257 265.877 147.79C265.016 147.309 264.335 146.659 263.833 145.839C263.331 145.019 263.081 144.1 263.081 143.082C263.081 142.065 263.331 141.153 263.833 140.348C264.335 139.541 265.016 138.905 265.877 138.439C266.737 137.959 267.711 137.718 268.801 137.718C269.89 137.718 270.866 137.952 271.726 138.418C272.586 138.884 273.267 139.528 273.768 140.348C274.27 141.153 274.521 142.065 274.521 143.082C274.521 144.1 274.27 145.019 273.768 145.839C273.267 146.659 272.586 147.309 271.726 147.79C270.866 148.257 269.89 148.489 268.801 148.489ZM268.801 145.542C269.274 145.542 269.69 145.443 270.048 145.246C270.406 145.034 270.679 144.744 270.866 144.376C271.066 143.994 271.166 143.564 271.166 143.082C271.166 142.602 271.066 142.185 270.866 141.832C270.664 141.464 270.385 141.182 270.027 140.984C269.683 140.771 269.274 140.666 268.801 140.666C268.342 140.666 267.934 140.771 267.575 140.984C267.217 141.182 266.937 141.464 266.737 141.832C266.536 142.2 266.435 142.623 266.435 143.104C266.435 143.571 266.536 143.994 266.737 144.376C266.937 144.744 267.217 145.034 267.575 145.246C267.934 145.443 268.342 145.542 268.801 145.542Z" fill="white"/>
<path id="Vector_14" fill-rule="evenodd" clip-rule="evenodd" d="M282.181 148.469C281.478 148.469 280.833 148.334 280.245 148.066C279.944 147.928 279.669 147.755 279.421 147.551L279.406 152.603H276.159V137.952H279.449L279.447 138.682C279.689 138.478 279.956 138.303 280.245 138.164C280.833 137.881 281.478 137.739 282.181 137.739C283.169 137.739 284.044 137.973 284.804 138.439C285.578 138.906 286.18 139.541 286.61 140.348C287.054 141.153 287.277 142.072 287.277 143.104C287.277 144.136 287.054 145.055 286.61 145.861C286.18 146.666 285.578 147.302 284.804 147.769C284.044 148.235 283.169 148.469 282.181 148.469ZM282.804 145.225C282.46 145.437 282.051 145.543 281.579 145.543C281.134 145.543 280.732 145.437 280.374 145.225C280.016 145.012 279.736 144.723 279.535 144.355C279.496 144.279 279.462 144.2 279.431 144.119C279.314 143.812 279.256 143.474 279.256 143.104C279.256 142.731 279.316 142.392 279.437 142.087C279.472 141.999 279.512 141.914 279.557 141.832C279.758 141.464 280.03 141.182 280.374 140.984C280.732 140.771 281.141 140.666 281.6 140.666C282.058 140.666 282.46 140.771 282.804 140.984C283.162 141.182 283.442 141.464 283.643 141.832C283.843 142.2 283.944 142.623 283.944 143.104C283.944 143.571 283.843 143.987 283.643 144.355C283.442 144.723 283.162 145.012 282.804 145.225Z" fill="white"/>
<path id="Vector_15" fill-rule="evenodd" clip-rule="evenodd" d="M294.109 148.489C292.976 148.489 291.966 148.264 291.077 147.811C290.202 147.345 289.514 146.702 289.012 145.882C288.511 145.062 288.26 144.136 288.26 143.104C288.26 142.072 288.504 141.153 288.991 140.348C289.493 139.528 290.167 138.884 291.013 138.418C291.858 137.952 292.811 137.718 293.873 137.718C294.905 137.718 295.815 137.937 296.603 138.375C297.392 138.814 298.009 139.421 298.453 140.199C298.912 140.977 299.141 141.867 299.141 142.871C299.141 143.055 299.127 143.252 299.098 143.464C299.084 143.662 299.048 143.896 298.991 144.164L291.499 144.181C291.547 144.348 291.607 144.505 291.679 144.652C291.909 145.076 292.224 145.408 292.625 145.648C293.041 145.875 293.529 145.987 294.088 145.987C294.604 145.987 295.07 145.903 295.485 145.733C295.901 145.55 296.266 145.281 296.582 144.928L298.389 146.709C297.872 147.302 297.249 147.748 296.517 148.044C295.787 148.341 294.984 148.489 294.109 148.489ZM295.12 140.517C295.464 140.715 295.722 141.012 295.894 141.407C295.966 141.568 296.024 141.745 296.068 141.942L291.5 141.955C291.544 141.806 291.596 141.666 291.658 141.535C291.873 141.111 292.167 140.786 292.539 140.559C292.927 140.319 293.378 140.199 293.894 140.199C294.382 140.199 294.79 140.305 295.12 140.517Z" fill="white"/>
<path id="Vector_16" d="M307.632 148.257V142.383C307.632 141.846 307.46 141.415 307.116 141.089C306.786 140.75 306.363 140.581 305.847 140.581C305.489 140.581 305.173 140.659 304.901 140.814C304.629 140.955 304.414 141.168 304.256 141.45C304.098 141.719 304.019 142.03 304.019 142.383V148.257H300.729V137.952H304.019V138.759C304.244 138.562 304.495 138.391 304.772 138.248C305.417 137.909 306.141 137.739 306.944 137.739C307.718 137.739 308.399 137.923 308.987 138.291C309.589 138.644 310.062 139.118 310.406 139.711C310.75 140.305 310.922 140.955 310.922 141.662V148.257H307.632Z" fill="white"/>
<path id="Vector_17" d="M317.131 148.257V132.863H320.421V148.257H317.131Z" fill="white"/>
<path id="Vector_18" d="M322.737 148.257V137.952H326.027V148.257H322.737ZM324.393 136.531C323.877 136.531 323.447 136.361 323.103 136.022C322.774 135.668 322.609 135.245 322.609 134.75C322.609 134.241 322.774 133.816 323.103 133.477C323.447 133.138 323.877 132.968 324.393 132.968C324.909 132.968 325.332 133.138 325.662 133.477C325.992 133.816 326.157 134.241 326.157 134.75C326.157 135.245 325.992 135.668 325.662 136.022C325.332 136.361 324.909 136.531 324.393 136.531Z" fill="white"/>
<path id="Vector_19" fill-rule="evenodd" clip-rule="evenodd" d="M334.366 148.469C333.663 148.469 333.018 148.327 332.43 148.044C332.123 147.889 331.843 147.69 331.591 147.457V148.257H328.345V132.863H331.635V138.647C331.875 138.445 332.14 138.275 332.43 138.143C333.018 137.873 333.663 137.739 334.366 137.739C335.355 137.739 336.229 137.973 336.989 138.439C337.763 138.905 338.366 139.541 338.796 140.348C339.24 141.153 339.462 142.072 339.462 143.104C339.462 144.136 339.24 145.055 338.796 145.86C338.366 146.666 337.763 147.302 336.989 147.769C336.229 148.235 335.355 148.469 334.366 148.469ZM334.99 145.225C334.645 145.437 334.244 145.543 333.785 145.543C333.326 145.543 332.918 145.443 332.56 145.246C332.216 145.034 331.943 144.744 331.742 144.376C331.542 144.009 331.441 143.584 331.441 143.104C331.441 142.623 331.535 142.2 331.721 141.832C331.921 141.464 332.201 141.182 332.56 140.984C332.918 140.771 333.326 140.666 333.785 140.666C334.244 140.666 334.645 140.771 334.99 140.984C335.348 141.182 335.627 141.464 335.828 141.832C336.029 142.2 336.129 142.623 336.129 143.104C336.129 143.571 336.029 143.987 335.828 144.355C335.627 144.723 335.348 145.012 334.99 145.225Z" fill="white"/>
<path id="Vector_20" d="M341.134 148.257V137.952H344.424V138.736C345.069 138.072 345.965 137.739 347.112 137.739C347.614 137.739 348.051 137.817 348.423 137.973C348.81 138.114 349.147 138.341 349.434 138.651L347.477 141.089C347.334 140.934 347.154 140.814 346.94 140.729C346.724 140.644 346.481 140.602 346.208 140.602C345.664 140.602 345.227 140.771 344.897 141.111C344.581 141.436 344.424 141.931 344.424 142.595V148.257H341.134Z" fill="white"/>
<path id="Vector_21" fill-rule="evenodd" clip-rule="evenodd" d="M354.382 148.469C353.422 148.469 352.561 148.235 351.802 147.769C351.056 147.302 350.461 146.666 350.017 145.861C349.587 145.055 349.372 144.136 349.372 143.104C349.372 142.072 349.587 141.153 350.017 140.348C350.461 139.541 351.056 138.906 351.802 138.439C352.561 137.973 353.422 137.739 354.382 137.739C355.085 137.739 355.715 137.874 356.275 138.143C356.648 138.318 356.978 138.587 357.264 138.925V137.952H360.489V148.257H357.264V147.421C356.989 147.678 356.667 147.892 356.296 148.066C355.722 148.334 355.085 148.469 354.382 148.469ZM356.748 144.864C356.317 145.316 355.751 145.543 355.048 145.543C354.604 145.543 354.203 145.437 353.844 145.225C353.486 145.012 353.207 144.723 353.006 144.355C352.805 143.987 352.705 143.571 352.705 143.104C352.705 142.623 352.805 142.2 353.006 141.832C353.221 141.464 353.5 141.182 353.844 140.984C354.203 140.771 354.611 140.666 355.07 140.666C355.529 140.666 355.931 140.771 356.275 140.984C356.633 141.182 356.905 141.464 357.092 141.832C357.161 141.959 357.218 142.092 357.264 142.233C357.35 142.499 357.393 142.79 357.393 143.104C357.393 143.42 357.35 143.712 357.264 143.98C357.157 144.312 356.985 144.606 356.748 144.864Z" fill="white"/>
<path id="Vector_22" d="M362.806 148.257V137.952H366.096V138.736C366.741 138.072 367.637 137.739 368.784 137.739C369.286 137.739 369.723 137.817 370.096 137.973C370.483 138.114 370.819 138.341 371.106 138.651L369.149 141.089C369.006 140.934 368.826 140.814 368.612 140.729C368.396 140.644 368.153 140.602 367.88 140.602C367.336 140.602 366.899 140.771 366.569 141.111C366.254 141.436 366.096 141.931 366.096 142.595V148.257H362.806Z" fill="white"/>
<path id="Vector_23" d="M370.823 137.952H374.372L376.455 144.21L378.586 137.952H382.135L375.812 152.603H372.436L374.813 147.548L370.823 137.952Z" fill="white"/>
</g>
<g id="bol-reds">
<path id="Vector_24" fill-rule="evenodd" clip-rule="evenodd" d="M235.488 128.461V87.6231H249.982V90.2231C252.637 87.933 256.081 86.788 260.312 86.788C262.256 86.788 263.922 87.0385 265.31 87.5396C266.754 88.0407 267.976 88.8201 268.976 89.878L260.562 101.152C260.118 100.651 259.48 100.261 258.646 99.9831C257.868 99.6491 256.98 99.482 255.98 99.482C254.092 99.482 252.621 100.067 251.565 101.236C250.51 102.349 249.982 104.02 249.982 106.247V108.042L249.9 117.918C249.9 128.461 239.936 128.461 235.488 128.461Z" fill="#FE4A49"/>
<path id="Vector_25" d="M249.995 142.571C249.995 146.554 246.748 149.783 242.741 149.783C238.735 149.783 235.488 146.554 235.488 142.571C235.488 138.588 238.735 135.36 242.741 135.36C246.748 135.36 249.995 138.588 249.995 142.571Z" fill="#FE4A49"/>
<path id="Vector_26" d="M105.897 160.921L101.031 156.023L102.334 154.726L105.9 158.316L109.49 154.724L110.789 156.024L105.897 160.921Z" fill="#FE4A49"/>
<path id="Vector_27" d="M69.7497 143.056H62.8301L62.8511 136.149L64.6887 136.155L64.6735 141.217H69.7497V143.056Z" fill="#FE4A49"/>
<path id="Vector_28" d="M64.6888 63.7698H62.8511V56.845L69.7527 56.8654L69.7471 58.7048L64.6888 58.6896V63.7698Z" fill="#FE4A49"/>
<path id="Vector_29" d="M69.7497 143.056H62.8301L62.8511 136.149L64.6887 136.155L64.6735 141.217H69.7497V143.056Z" fill="#FE4A49"/>
<path id="Vector_30" d="M148.973 143.076L142.071 143.056L142.076 141.216L147.135 141.231V136.151H148.973V143.076Z" fill="#FE4A49"/>
<path id="Vector_31" d="M161.929 104.844L160.633 103.54L164.22 99.9706L160.631 96.3785L161.93 95.078L166.824 99.9746L161.929 104.844Z" fill="#FE4A49"/>
<path id="Vector_32" d="M49.2798 104.844L50.5757 103.54L46.988 99.9706L50.5775 96.3785L49.2783 95.078L44.3848 99.9746L49.2798 104.844Z" fill="#FE4A49"/>
<path id="Vector_33" d="M148.972 63.7724L147.135 63.7671L147.15 58.7047H142.073V56.8654H148.993L148.972 63.7724Z" fill="#FE4A49"/>
<path id="Vector_34" d="M102.333 45.1971L101.033 43.8966L105.926 39L110.792 43.8983L109.489 45.1953L105.923 41.6048L102.333 45.1971Z" fill="#FE4A49"/>
</g>
</g>
</svg>
