<svg width="540" height="160" viewBox="0 0 540 160" fill="none" xmlns="http://www.w3.org/2000/svg">
<g id="logo-fm">
<rect width="540" height="160" fill="#272727"/>
<g id="fm-whites">
<path id="Vector" d="M171.251 40.0213H150.478V48.5217H167.048V56.597H150.478V72.0191H140V31.946H171.251V40.0213Z" fill="white"/>
<path id="Vector_2" fill-rule="evenodd" clip-rule="evenodd" d="M212.817 72.0192H212.662L212.717 71.864L212.817 72.0192Z" fill="white"/>
<path id="Vector_3" fill-rule="evenodd" clip-rule="evenodd" d="M206.42 35.3461C203.781 33.0794 200.065 31.946 195.272 31.946H176.083V72.0191H186.378V57.3863H192.657L201.242 72.0191H212.662L212.717 71.864L202.343 55.8404C203.933 55.3111 205.313 54.5716 206.481 53.6219C209.121 51.4766 210.441 48.3598 210.441 44.2715C210.441 40.5475 209.101 37.5724 206.42 35.3461ZM198.379 48.7646C197.364 49.5741 195.841 49.9789 193.81 49.9789H186.378V39.8392H193.81C195.841 39.8392 197.364 40.244 198.379 41.0535C199.395 41.8631 199.902 43.1381 199.902 44.8787C199.902 46.6597 199.395 47.955 198.379 48.7646Z" fill="white"/>
<path id="Vector_4" d="M253.417 72.0191H242.634L239.831 62.9723H226.064L223.201 72.0191H212.662L212.717 71.864L226.795 31.946H239.344L253.417 72.0191ZM228.013 55.8684H237.882L232.948 39.657L228.013 55.8684Z" fill="white"/>
<path id="Vector_5" fill-rule="evenodd" clip-rule="evenodd" d="M212.817 72.0192H212.662L212.717 71.864L212.817 72.0192Z" fill="white"/>
<path id="Vector_6" d="M291.025 60.5437C290.253 63.3367 289.015 65.6439 287.309 67.4655C285.603 69.2465 283.572 70.562 281.217 71.412C278.861 72.2216 276.262 72.6264 273.42 72.6264C269.358 72.6264 265.845 71.8168 262.88 70.1977C259.915 68.5381 257.641 66.1701 256.057 63.0939C254.473 60.0175 253.682 56.3138 253.682 51.9826C253.682 47.6515 254.473 43.9478 256.057 40.8715C257.641 37.7952 259.915 35.4474 262.88 33.8283C265.845 32.1687 269.338 31.3389 273.358 31.3389C276.16 31.3389 278.739 31.7437 281.095 32.5533C283.451 33.3223 285.441 34.5164 287.066 36.1356C288.69 37.7547 289.848 39.8393 290.537 42.3894L281.339 46.0931C280.77 43.5835 279.837 41.8632 278.537 40.9322C277.277 40.0012 275.673 39.5357 273.724 39.5357C271.815 39.5357 270.15 40.0012 268.728 40.9322C267.347 41.8632 266.272 43.2597 265.5 45.1216C264.769 46.9432 264.403 49.2301 264.403 51.9826C264.403 54.6947 264.748 56.9817 265.439 58.8436C266.129 60.7057 267.165 62.1021 268.545 63.0331C269.967 63.9641 271.713 64.4296 273.785 64.4296C275.734 64.4296 277.379 63.9034 278.72 62.851C280.1 61.758 281.035 60.0984 281.521 57.8722L291.025 60.5437Z" fill="white"/>
<path id="Vector_7" d="M329.444 31.946V40.0213H316.346V72.0191H305.868V40.0213H292.71V31.946H329.444Z" fill="white"/>
<path id="Vector_8" d="M365.71 72.0191H354.927L352.126 62.9723H338.358L335.494 72.0191H324.956L339.088 31.946H351.638L365.71 72.0191ZM340.307 55.8684H350.176L345.242 39.657L340.307 55.8684Z" fill="white"/>
<path id="Vector_9" d="M379.646 63.9437H399.81V72.0191H369.168V31.946H379.646V63.9437Z" fill="white"/>
</g>
<g id="fm-greens">
<path id="Vector_10" d="M158.777 77.7276V123.08H146.366V104.939L146.642 90.3026H146.504L136.507 123.08H125.2L115.341 90.3026H115.134L115.41 104.939V123.08H103V77.7276H122.856L128.992 99.2357L131.268 108.238H131.405L133.681 99.2357L139.817 77.7276H158.777Z" fill="#53DD6C"/>
<path id="Vector_11" d="M208.878 123.08H194.4L191.849 113.667H177.991L175.371 123.08H161.306L176.612 77.7276H193.504L208.878 123.08ZM180.335 104.596H189.574L184.954 87.6914L180.335 104.596Z" fill="#53DD6C"/>
<path id="Vector_12" d="M254.354 77.7276V123.08H238.911L226.5 100.61L223.605 94.4943H223.467L223.742 103.427V123.08H211.471V77.7276H226.845L239.255 100.198L242.22 106.313H242.289L242.013 97.3804V77.7276H254.354Z" fill="#53DD6C"/>
<path id="Vector_13" d="M233.325 138.473C230.981 138.473 229.211 137.969 228.016 136.961C226.867 135.953 226.293 134.441 226.293 132.426C226.293 130.456 226.867 128.967 228.016 127.96C229.211 126.952 230.981 126.448 233.325 126.448C235.715 126.448 237.508 126.952 238.703 127.96C239.944 128.967 240.564 130.456 240.564 132.426C240.564 134.441 239.944 135.953 238.703 136.961C237.508 137.969 235.715 138.473 233.325 138.473Z" fill="#53DD6C"/>
<path id="Vector_14" d="M280.219 138.473C277.874 138.473 276.104 137.969 274.909 136.961C273.76 135.953 273.186 134.441 273.186 132.426C273.186 130.456 273.76 128.967 274.909 127.96C276.104 126.952 277.874 126.448 280.219 126.448C282.608 126.448 284.401 126.952 285.596 127.96C286.837 128.967 287.457 130.456 287.457 132.426C287.457 134.441 286.837 135.953 285.596 136.961C284.401 137.969 282.608 138.473 280.219 138.473Z" fill="#53DD6C"/>
<path id="Vector_15" d="M282.287 77.7276C289.411 77.7276 294.835 79.6974 298.558 83.6371C302.281 87.5769 304.143 93.1658 304.143 100.404C304.143 107.596 302.281 113.185 298.558 117.171C294.835 121.111 289.411 123.08 282.287 123.08H261.396V77.7276H282.287ZM280.563 112.842C283.964 112.842 286.331 111.834 287.665 109.818C288.997 107.757 289.664 104.618 289.664 100.404C289.664 96.1893 288.997 93.0742 287.665 91.0585C286.331 88.9971 283.964 87.9662 280.563 87.9662H275.461V112.842H280.563Z" fill="#53DD6C"/>
<path id="Vector_16" d="M350.846 123.08H336.368L333.817 113.667H319.959L317.339 123.08H303.274L318.579 77.7276H335.472L350.846 123.08ZM322.303 104.596H331.542L326.922 87.6914L322.303 104.596Z" fill="#53DD6C"/>
<path id="Vector_17" d="M367.502 112.567H389.151V123.08H353.438V77.7276H367.502V112.567Z" fill="#53DD6C"/>
<path id="Vector_18" d="M436.827 123.08H422.349L419.798 113.667H405.94L403.32 123.08H389.255L404.561 77.7276H421.453L436.827 123.08ZM408.284 104.596H417.523L412.904 87.6914L408.284 104.596Z" fill="#53DD6C"/>
</g>
</g>
</svg>
