<svg width="540" height="200" viewBox="0 0 540 200" fill="none" xmlns="http://www.w3.org/2000/svg">
<g id="logo-soa">
<rect width="540" height="200" fill="#272727"/>
<g id="scrolls of &#196;&#129;ryavarta">
<path d="M97.9488 88.0446C96.3123 88.0446 94.7576 87.8401 93.2848 87.4309C91.8528 86.9809 90.5232 86.3672 89.2958 85.5899C88.0684 84.7716 87.0047 83.8102 86.1046 82.7055L89.664 79.1462C90.7277 80.4554 91.9551 81.4373 93.3461 82.0919C94.7372 82.7055 96.2918 83.0124 98.0102 83.0124C99.7285 83.0124 101.058 82.726 101.999 82.1532C102.94 81.5395 103.411 80.7008 103.411 79.6371C103.411 78.5734 103.022 77.7551 102.245 77.1824C101.508 76.5687 100.547 76.0777 99.3603 75.7095C98.1738 75.3004 96.9055 74.9117 95.5554 74.5435C94.2462 74.1344 92.9984 73.623 91.8119 73.0093C90.6255 72.3956 89.6436 71.5569 88.8662 70.4932C88.1298 69.4295 87.7616 68.018 87.7616 66.2587C87.7616 64.4995 88.1912 62.9857 89.0503 61.7175C89.9095 60.4083 91.096 59.4059 92.6097 58.7104C94.1644 58.0149 96.0259 57.6671 98.1943 57.6671C100.485 57.6671 102.511 58.0762 104.27 58.8945C106.07 59.6718 107.543 60.8583 108.688 62.4539L105.129 66.0133C104.311 64.9495 103.288 64.1313 102.06 63.5585C100.874 62.9857 99.5239 62.6994 98.0102 62.6994C96.4146 62.6994 95.1872 62.9857 94.328 63.5585C93.5098 64.0904 93.1007 64.8473 93.1007 65.8292C93.1007 66.8111 93.4689 67.5679 94.2053 68.0998C94.9417 68.6317 95.9032 69.0817 97.0896 69.4499C98.317 69.8181 99.5853 70.2068 100.894 70.6159C102.204 70.9841 103.452 71.4955 104.638 72.1501C105.824 72.8047 106.786 73.6843 107.522 74.789C108.3 75.8936 108.688 77.346 108.688 79.1462C108.688 81.8873 107.706 84.0557 105.743 85.6512C103.82 87.2468 101.222 88.0446 97.9488 88.0446Z" fill="white"/>
<path d="M128.189 88.0446C125.325 88.0446 122.727 87.3696 120.395 86.0195C118.104 84.6693 116.283 82.8487 114.933 80.5576C113.624 78.2256 112.969 75.6481 112.969 72.8252C112.969 69.9613 113.624 67.3838 114.933 65.0927C116.283 62.8016 118.104 61.0015 120.395 59.6923C122.727 58.3422 125.325 57.6671 128.189 57.6671C130.439 57.6671 132.525 58.0967 134.448 58.9559C136.371 59.7741 138.028 60.981 139.419 62.5766L135.737 66.2587C134.837 65.195 133.732 64.3972 132.423 63.8654C131.155 63.2926 129.743 63.0062 128.189 63.0062C126.348 63.0062 124.711 63.4358 123.279 64.2949C121.847 65.1132 120.722 66.2587 119.904 67.7316C119.086 69.2044 118.677 70.9023 118.677 72.8252C118.677 74.7481 119.086 76.4459 119.904 77.9188C120.722 79.3916 121.847 80.5576 123.279 81.4168C124.711 82.276 126.348 82.7055 128.189 82.7055C129.743 82.7055 131.155 82.4396 132.423 81.9078C133.732 81.335 134.857 80.5167 135.798 79.453L139.419 83.1351C138.069 84.6898 136.412 85.8967 134.448 86.7559C132.525 87.615 130.439 88.0446 128.189 88.0446Z" fill="white"/>
<path d="M144.897 87.4309V58.2808H150.42V87.4309H144.897ZM150.42 70.8L148.333 69.8795C148.333 66.1565 149.193 63.1903 150.911 60.981C152.629 58.7718 155.104 57.6671 158.337 57.6671C159.809 57.6671 161.139 57.9331 162.326 58.4649C163.512 58.9559 164.617 59.7946 165.639 60.981L162.019 64.7245C161.405 64.0699 160.73 63.5994 159.994 63.313C159.257 63.0267 158.398 62.8835 157.416 62.8835C155.37 62.8835 153.693 63.5381 152.384 64.8473C151.075 66.1565 150.42 68.1407 150.42 70.8Z" fill="white"/>
<path d="M181.886 88.0446C179.022 88.0446 176.445 87.3696 174.154 86.0195C171.863 84.6693 170.042 82.8487 168.692 80.5576C167.342 78.2256 166.667 75.6277 166.667 72.7638C166.667 69.9409 167.342 67.4043 168.692 65.1541C170.042 62.863 171.863 61.0424 174.154 59.6923C176.445 58.3422 179.022 57.6671 181.886 57.6671C184.709 57.6671 187.266 58.3422 189.557 59.6923C191.889 61.0015 193.73 62.8016 195.081 65.0927C196.431 67.3838 197.106 69.9409 197.106 72.7638C197.106 75.6277 196.431 78.2256 195.081 80.5576C193.73 82.8487 191.889 84.6693 189.557 86.0195C187.266 87.3696 184.709 88.0446 181.886 88.0446ZM181.886 82.7055C183.727 82.7055 185.364 82.276 186.796 81.4168C188.228 80.5576 189.353 79.3916 190.171 77.9188C190.989 76.405 191.398 74.6867 191.398 72.7638C191.398 70.8818 190.969 69.2044 190.11 67.7316C189.291 66.2587 188.166 65.1132 186.734 64.2949C185.343 63.4358 183.727 63.0062 181.886 63.0062C180.045 63.0062 178.409 63.4358 176.977 64.2949C175.545 65.1132 174.42 66.2587 173.602 67.7316C172.783 69.2044 172.374 70.8818 172.374 72.7638C172.374 74.6867 172.783 76.405 173.602 77.9188C174.42 79.3916 175.545 80.5576 176.977 81.4168C178.409 82.276 180.045 82.7055 181.886 82.7055Z" fill="white"/>
<path d="M203.329 87.4309V43.6137H208.852V87.4309H203.329Z" fill="white"/>
<path d="M216.933 87.4309V43.6137H222.456V87.4309H216.933Z" fill="white"/>
<path d="M239.804 88.0446C238.167 88.0446 236.613 87.8401 235.14 87.4309C233.708 86.9809 232.378 86.3672 231.151 85.5899C229.924 84.7716 228.86 83.8102 227.96 82.7055L231.519 79.1462C232.583 80.4554 233.81 81.4373 235.201 82.0919C236.592 82.7055 238.147 83.0124 239.865 83.0124C241.584 83.0124 242.913 82.726 243.854 82.1532C244.795 81.5395 245.266 80.7008 245.266 79.6371C245.266 78.5734 244.877 77.7551 244.1 77.1824C243.363 76.5687 242.402 76.0777 241.215 75.7095C240.029 75.3004 238.761 74.9117 237.411 74.5435C236.101 74.1344 234.854 73.623 233.667 73.0093C232.481 72.3956 231.499 71.5569 230.721 70.4932C229.985 69.4295 229.617 68.018 229.617 66.2587C229.617 64.4995 230.046 62.9857 230.906 61.7175C231.765 60.4083 232.951 59.4059 234.465 58.7104C236.02 58.0149 237.881 57.6671 240.049 57.6671C242.341 57.6671 244.366 58.0762 246.125 58.8945C247.925 59.6718 249.398 60.8583 250.543 62.4539L246.984 66.0133C246.166 64.9495 245.143 64.1313 243.916 63.5585C242.729 62.9857 241.379 62.6994 239.865 62.6994C238.27 62.6994 237.042 62.9857 236.183 63.5585C235.365 64.0904 234.956 64.8473 234.956 65.8292C234.956 66.8111 235.324 67.5679 236.06 68.0998C236.797 68.6317 237.758 69.0817 238.945 69.4499C240.172 69.8181 241.44 70.2068 242.75 70.6159C244.059 70.9841 245.307 71.4955 246.493 72.1501C247.68 72.8047 248.641 73.6843 249.377 74.789C250.155 75.8936 250.543 77.346 250.543 79.1462C250.543 81.8873 249.562 84.0557 247.598 85.6512C245.675 87.2468 243.077 88.0446 239.804 88.0446Z" fill="white"/>
<path d="M282.809 88.0446C279.945 88.0446 277.368 87.3696 275.077 86.0195C272.785 84.6693 270.965 82.8487 269.615 80.5576C268.265 78.2256 267.59 75.6277 267.59 72.7638C267.59 69.9409 268.265 67.4043 269.615 65.1541C270.965 62.863 272.785 61.0424 275.077 59.6923C277.368 58.3422 279.945 57.6671 282.809 57.6671C285.632 57.6671 288.189 58.3422 290.48 59.6923C292.812 61.0015 294.653 62.8016 296.003 65.0927C297.353 67.3838 298.028 69.9409 298.028 72.7638C298.028 75.6277 297.353 78.2256 296.003 80.5576C294.653 82.8487 292.812 84.6693 290.48 86.0195C288.189 87.3696 285.632 88.0446 282.809 88.0446ZM282.809 82.7055C284.65 82.7055 286.287 82.276 287.719 81.4168C289.15 80.5576 290.276 79.3916 291.094 77.9188C291.912 76.405 292.321 74.6867 292.321 72.7638C292.321 70.8818 291.892 69.2044 291.032 67.7316C290.214 66.2587 289.089 65.1132 287.657 64.2949C286.266 63.4358 284.65 63.0062 282.809 63.0062C280.968 63.0062 279.331 63.4358 277.9 64.2949C276.468 65.1132 275.343 66.2587 274.524 67.7316C273.706 69.2044 273.297 70.8818 273.297 72.7638C273.297 74.6867 273.706 76.405 274.524 77.9188C275.343 79.3916 276.468 80.5576 277.9 81.4168C279.331 82.276 280.968 82.7055 282.809 82.7055Z" fill="white"/>
<path d="M307.526 87.4309V53.9236C307.526 51.7553 307.996 49.8733 308.937 48.2777C309.878 46.6412 311.167 45.3525 312.803 44.4115C314.481 43.4705 316.424 43 318.633 43C320.311 43 321.763 43.2864 322.991 43.8592C324.218 44.4319 325.343 45.2706 326.366 46.3753L322.745 49.9347C322.213 49.3619 321.62 48.9323 320.966 48.6459C320.311 48.3186 319.513 48.155 318.572 48.155C316.813 48.155 315.442 48.6664 314.46 49.6892C313.519 50.712 313.049 52.1235 313.049 53.9236V87.4309H307.526ZM300.346 63.313V58.2808H322.316V63.313H300.346Z" fill="white"/>
<path d="M85 156.471L101.631 112.776H114.15L130.597 156.471H117.832L105.62 119.343H110.038L97.5192 156.471H85ZM95.8009 149.106V139.533H120.226V149.106H95.8009Z" fill="white"/>
<path d="M95.7764 100.641H119.833V109.048H95.7764V100.641Z" fill="white"/>
<path d="M144.52 139.042V130.573H151.946C153.623 130.573 154.892 130.164 155.751 129.346C156.651 128.528 157.101 127.443 157.101 126.093C157.101 124.743 156.651 123.659 155.751 122.841C154.892 122.022 153.623 121.613 151.946 121.613H144.52V112.776H153.91C156.937 112.776 159.597 113.329 161.888 114.433C164.179 115.538 165.979 117.072 167.288 119.036C168.597 121 169.252 123.291 169.252 125.909C169.252 128.528 168.577 130.819 167.227 132.782C165.918 134.746 164.077 136.28 161.704 137.385C159.331 138.49 156.528 139.042 153.296 139.042H144.52ZM134.579 156.471V112.776H146.852V156.471H134.579ZM158.144 156.471L146.239 137.815L157.285 135.421L172.075 156.471H158.144Z" fill="white"/>
<path d="M186.789 141.435L170.158 112.776H184.273L196.854 136.158H186.298L198.879 112.776H212.687L195.933 141.435H186.789ZM185.378 156.471V136.955H197.651V156.471H185.378Z" fill="white"/>
<path d="M207.677 156.471L224.308 112.776H236.828L253.274 156.471H240.51L228.297 119.343H232.716L220.197 156.471H207.677ZM218.478 149.106V139.533H242.903V149.106H218.478Z" fill="white"/>
<path d="M264.748 156.471L248.731 112.776H261.741L273.586 148.063H267.817L279.845 112.776H292.671L276.408 156.471H264.748Z" fill="white"/>
<path d="M288.164 156.471L304.795 112.776H317.314L333.761 156.471H320.996L308.784 119.343H313.202L300.683 156.471H288.164ZM298.965 149.106V139.533H323.39V149.106H298.965Z" fill="white"/>
<path d="M347.205 139.042V130.573H354.631C356.308 130.573 357.576 130.164 358.435 129.346C359.335 128.528 359.786 127.443 359.786 126.093C359.786 124.743 359.335 123.659 358.435 122.841C357.576 122.022 356.308 121.613 354.631 121.613H347.205V112.776H356.594C359.622 112.776 362.281 113.329 364.572 114.433C366.863 115.538 368.664 117.072 369.973 119.036C371.282 121 371.937 123.291 371.937 125.909C371.937 128.528 371.261 130.819 369.911 132.782C368.602 134.746 366.761 136.28 364.388 137.385C362.015 138.49 359.213 139.042 355.981 139.042H347.205ZM337.263 156.471V112.776H349.537V156.471H337.263ZM360.829 156.471L348.923 137.815L359.97 135.421L374.759 156.471H360.829Z" fill="white"/>
<path d="M387.43 156.471V112.776H399.703V156.471H387.43ZM374.358 123.209V112.776H412.836V123.209H374.358Z" fill="white"/>
<path d="M409.403 156.471L426.034 112.776H438.553L455 156.471H442.235L430.023 119.343H434.441L421.922 156.471H409.403ZM420.204 149.106V139.533H444.629V149.106H420.204Z" fill="white"/>
</g>
<g id="soa-a">
<path d="M85 156.471L101.631 112.776H114.15L130.597 156.471H117.832L105.62 119.343H110.038L97.5192 156.471H85ZM95.8009 149.106V139.533H120.226V149.106H95.8009Z" fill="#FF3D00"/>
<path d="M95.7764 100.641H119.833V109.048H95.7764V100.641Z" fill="#FF3D00"/>
</g>
</g>
</svg>
