<svg width="600" height="160" viewBox="0 0 600 160" fill="none" xmlns="http://www.w3.org/2000/svg">
<g id="logo-dra">
<rect width="600" height="160" fill="#272727"/>
<g id="dradra">
<path id="Vector" d="M279.197 102.884V62.7863H298.558C305.325 62.7863 310.531 64.5525 314.178 68.0849C317.825 71.5696 319.649 76.4862 319.649 82.8349C319.649 89.1836 317.825 94.1242 314.178 97.6566C310.531 101.141 305.325 102.884 298.558 102.884H279.197ZM293.449 92.358H298.415C300.861 92.358 302.565 91.5703 303.526 89.9951C304.533 88.3721 305.037 85.9855 305.037 82.8349C305.037 79.6844 304.533 77.3215 303.526 75.7463C302.565 74.1234 300.861 73.3119 298.415 73.3119H293.449V92.358Z" fill="white"/>
<path id="Vector_2" d="M366.152 102.884L380.475 62.7863H397.895L412.146 102.884H397.822L395.734 95.5084H381.915L379.756 102.884H366.152ZM384.578 86.2002H393.144L388.969 72.4526L384.578 86.2002Z" fill="white"/>
<path id="Vector_3" d="M491.22 102.884L505.543 62.7863H522.962L537.214 102.884H522.89L520.802 95.5084H506.983L504.824 102.884H491.22ZM509.646 86.2002H518.211L514.037 72.4526L509.646 86.2002ZM527.784 50.0412V58.5618H500.72V50.0412H527.784Z" fill="white"/>
<path id="Vector_4" fill-rule="evenodd" clip-rule="evenodd" d="M421.55 102.239C424.62 103.05 428.22 103.456 432.347 103.456C436.281 103.456 439.688 102.883 442.568 101.738C445.447 100.592 447.677 98.9691 449.261 96.8689C450.845 94.7208 451.637 92.2147 451.637 89.3506C451.637 87.2026 451.157 85.4125 450.197 83.9805C449.285 82.5008 447.942 81.3312 446.166 80.472C444.439 79.565 442.328 78.9206 439.832 78.5388L433.786 77.5363C432.634 77.2977 431.627 77.1067 430.763 76.9636C429.899 76.7726 429.204 76.5339 428.676 76.2475C428.196 75.9133 427.956 75.4837 427.956 74.9586C427.956 74.1949 428.34 73.5505 429.107 73.0255C429.924 72.4526 431.17 72.1662 432.851 72.1662C434.674 72.1662 436.281 72.3333 437.673 72.6674C439.064 72.9538 440.408 73.455 441.704 74.171C443.048 74.8871 444.51 75.8657 446.094 77.1067L451.781 67.9417C450.053 66.6528 448.254 65.5788 446.382 64.7196C444.51 63.8604 442.471 63.2399 440.265 62.8579C438.104 62.4283 435.585 62.2135 432.707 62.2135C428.771 62.2135 425.364 62.7625 422.486 63.8604C419.607 64.9583 417.375 66.5335 415.791 68.5861C414.208 70.6387 413.417 73.097 413.417 75.9611C413.417 78.2523 413.921 80.2095 414.928 81.8325C415.984 83.4555 417.471 84.7681 419.391 85.7706C421.358 86.7253 423.709 87.3936 426.444 87.7754L432.491 88.6347C433.402 88.7301 434.193 88.8972 434.866 89.1359C435.585 89.3267 436.138 89.5894 436.521 89.9235C436.905 90.2099 437.097 90.6156 437.097 91.1407C437.097 91.6181 436.905 92.0476 436.521 92.4296C436.185 92.7637 435.657 93.0262 434.937 93.2172C434.218 93.3604 433.306 93.4319 432.203 93.4319C429.42 93.4319 426.901 93.074 424.645 92.3579C422.437 91.5942 420.374 90.377 418.455 88.7062L412.913 97.9429C415.6 99.9477 418.479 101.38 421.55 102.239Z" fill="white"/>
<path id="Vector_5" fill-rule="evenodd" clip-rule="evenodd" d="M325.641 62.7863V102.884H339.894V89.8519H344.157L351.554 102.884H366.382L356.924 88.2144C358.085 87.7246 359.126 87.1247 360.047 86.415C363.07 84.0761 364.581 80.7346 364.581 76.3907C364.581 71.9991 363.07 68.6338 360.047 66.2948C357.072 63.9559 352.849 62.7863 347.379 62.7863H325.641ZM345.291 81.2596H339.894V72.1662H345.291C347.019 72.1662 348.291 72.5481 349.107 73.3119C349.971 74.0278 350.402 75.1735 350.402 76.7487C350.402 78.2762 349.971 79.4219 349.107 80.1856C348.291 80.9017 347.019 81.2596 345.291 81.2596Z" fill="white"/>
<path id="Vector_6" d="M482.092 102.884H467.625V73.5266H454.309V62.7863H495.48V73.5266H482.092V102.884Z" fill="white"/>
<path id="b" fill-rule="evenodd" clip-rule="evenodd" d="M78.8785 102.426C81.057 103.415 83.4258 103.909 85.9856 103.909C89.8524 103.909 93.256 103.003 96.1968 101.19C99.1377 99.3772 101.425 96.9056 103.059 93.7748C104.747 90.589 105.591 86.9911 105.591 82.9813C105.591 78.9168 104.747 75.2916 103.059 72.1056C101.425 68.9199 99.1377 66.4482 96.1968 64.6906C93.256 62.8779 89.8524 61.9714 85.9856 61.9714C83.4804 61.9714 81.1385 62.4386 78.9602 63.3722C78.055 63.7374 77.2108 64.1689 76.4278 64.667V43.0215H62.2139V103.085H76.1011V100.749C76.9453 101.384 77.8712 101.943 78.8785 102.426ZM87.456 90.0671C86.3121 90.7811 84.978 91.1382 83.453 91.1382C81.9281 91.1382 80.5667 90.8087 79.3686 90.1494C78.1706 89.4355 77.2446 88.4742 76.5911 87.2658C75.9375 86.0025 75.6109 84.547 75.6109 82.899C75.6109 81.3062 75.9375 79.9054 76.5911 78.697C77.2446 77.4888 78.1434 76.5273 79.2869 75.8133C80.485 75.0992 81.8465 74.7423 83.3715 74.7423C84.8963 74.7423 86.2579 75.0992 87.456 75.8133C88.6541 76.5273 89.58 77.5161 90.2336 78.7793C90.8872 79.9877 91.2137 81.3609 91.2137 82.899C91.2137 84.4918 90.8872 85.9202 90.2336 87.1834C89.58 88.3919 88.6541 89.353 87.456 90.0671Z" fill="white"/>
<path id="h" fill-rule="evenodd" clip-rule="evenodd" d="M172.91 80.3449V103.085H187.125V77.0492C187.125 74.0832 186.471 71.474 185.164 69.222C183.911 66.9699 182.087 65.2122 179.69 63.9491C177.349 62.6306 174.571 61.9714 171.358 61.9714C168.254 61.9714 165.531 62.6306 163.189 63.9491C162.492 64.3248 161.839 64.7495 161.229 65.2229V43.0215H147.015V103.085H161.229V80.3449C161.229 79.0816 161.474 78.0105 161.964 77.1317C162.454 76.2528 163.135 75.5661 164.006 75.072C164.932 74.5775 165.967 74.3304 167.11 74.3304C168.799 74.3304 170.187 74.8796 171.277 75.9781C172.366 77.0217 172.91 78.4774 172.91 80.3449Z" fill="white"/>
<path id="a" fill-rule="evenodd" clip-rule="evenodd" d="M201.421 101.19C204.308 103.003 207.602 103.909 211.306 103.909C213.811 103.909 216.099 103.442 218.168 102.508C219.46 101.925 220.603 101.214 221.599 100.374V103.085H235.568V62.7954H221.599V65.4683C220.603 64.6197 219.46 63.9211 218.168 63.3722C216.099 62.4386 213.811 61.9714 211.306 61.9714C207.602 61.9714 204.308 62.8779 201.421 64.6906C198.535 66.4482 196.275 68.9199 194.641 72.1056C193.007 75.2916 192.19 78.9168 192.19 82.9813C192.19 86.9911 193.007 90.589 194.641 93.7748C196.275 96.9056 198.535 99.3772 201.421 101.19ZM219.965 88.8313C218.547 90.3691 216.67 91.1382 214.328 91.1382C212.858 91.1382 211.523 90.7811 210.325 90.0671C209.126 89.353 208.202 88.3919 207.548 87.1834C206.895 85.9202 206.568 84.4918 206.568 82.899C206.568 81.3609 206.895 79.9877 207.548 78.7793C208.255 77.5161 209.181 76.5273 210.325 75.8133C211.523 75.0992 212.885 74.7423 214.41 74.7423C215.935 74.7423 217.268 75.0992 218.413 75.8133C219.61 76.5273 220.537 77.4888 221.191 78.697C221.843 79.9054 222.169 81.3062 222.169 82.899C222.169 85.3158 221.435 87.2934 219.965 88.8313Z" fill="white"/>
<path id="t" fill-rule="evenodd" clip-rule="evenodd" d="M249.334 74.7424V103.085H263.548V74.7424H272.371V62.7955H263.548V46.1524H249.334V62.7955H240.513V74.7424H249.334Z" fill="white"/>
</g>
<g id="dra-reds">
<path id="dra-ci" d="M118.016 125.395C122.027 125.395 125.278 122.143 125.278 118.131C125.278 114.119 122.027 110.867 118.016 110.867C114.005 110.867 110.754 114.119 110.754 118.131C110.754 122.143 114.005 125.395 118.016 125.395Z" fill="#FE4A49"/>
<path id="Vector_7" d="M432.778 118.922C430.331 118.922 428.484 118.397 427.236 117.347C426.037 116.297 425.437 114.722 425.437 112.621C425.437 110.569 426.037 109.017 427.236 107.967C428.484 106.917 430.331 106.392 432.778 106.392C435.274 106.392 437.145 106.917 438.393 107.967C439.688 109.017 440.336 110.569 440.336 112.621C440.336 114.722 439.688 116.297 438.393 117.347C437.145 118.397 435.274 118.922 432.778 118.922Z" fill="#FE4A49"/>
<path id="Vector_8" d="M474.822 118.922C472.375 118.922 470.528 118.397 469.28 117.347C468.081 116.297 467.481 114.722 467.481 112.621C467.481 110.569 468.081 109.017 469.28 107.967C470.528 106.917 472.375 106.392 474.822 106.392C477.318 106.392 479.189 106.917 480.437 107.967C481.732 109.017 482.38 110.569 482.38 112.621C482.38 114.722 481.732 116.297 480.437 117.347C479.189 118.397 477.318 118.922 474.822 118.922Z" fill="#FE4A49"/>
<path id="dra-ri" fill-rule="evenodd" clip-rule="evenodd" d="M110.754 103.92V62.7865H125.265V65.4052C127.922 63.0986 131.369 61.9453 135.606 61.9453C137.552 61.9453 139.22 62.1977 140.61 62.7024C142.055 63.2071 143.278 63.9921 144.279 65.0575L135.856 76.4136C135.411 75.9088 134.772 75.5161 133.938 75.2359C133.16 74.8993 132.27 74.7312 131.269 74.7312C129.379 74.7312 127.906 75.32 126.85 76.4976C125.793 77.6192 125.265 79.3016 125.265 81.5447V83.3532L125.182 93.3004C125.182 103.92 115.208 103.92 110.754 103.92Z" fill="#FE4A49"/>
</g>
</g>
</svg>
