<svg width="600" height="160" viewBox="0 0 600 160" fill="none" xmlns="http://www.w3.org/2000/svg">
<g id="logo-rid">
<rect width="600" height="160" fill="#272727"/>
<g id="rd-white">
<path id="Vector" d="M135.316 40.2371H148.039V56.8911H157.186V67.6623H148.039V97.159H135.316V67.6623H126.169V56.8911H135.316V40.2371Z" fill="white"/>
<path id="Vector_2" fill-rule="evenodd" clip-rule="evenodd" d="M180.524 97.9876C176.81 97.9876 173.484 97.0762 170.545 95.2533C167.663 93.4305 165.362 90.9448 163.643 87.7964C161.98 84.6478 161.149 81.0574 161.149 77.0251C161.149 72.9928 161.98 69.4023 163.643 66.2539C165.362 63.1053 167.663 60.6196 170.545 58.7968C173.484 56.974 176.81 56.0626 180.524 56.0626C183.241 56.0626 185.68 56.5873 187.842 57.6368C189.296 58.3249 190.571 59.191 191.667 60.2351V56.8911H204.141V97.159H191.667V93.8955C190.605 94.8961 189.358 95.7354 187.925 96.4133C185.708 97.4628 183.241 97.9876 180.524 97.9876ZM189.672 83.9021C188.008 85.6697 185.819 86.5535 183.102 86.5535C181.384 86.5535 179.831 86.1392 178.445 85.3106C177.059 84.4821 175.978 83.3497 175.202 81.9136C174.426 80.4774 174.038 78.8479 174.038 77.0251C174.038 75.147 174.426 73.4899 175.202 72.0537C176.034 70.6176 177.115 69.5128 178.445 68.7395C179.831 67.911 181.411 67.4966 183.185 67.4966C184.959 67.4966 186.512 67.911 187.842 68.7395C189.228 69.5128 190.281 70.6176 191.002 72.0537C191.778 73.4899 192.166 75.147 192.166 77.0251C192.166 79.787 191.335 82.0793 189.672 83.9021Z" fill="white"/>
<path id="Vector_3" fill-rule="evenodd" clip-rule="evenodd" d="M221.1 57.8026V97.1591H228.585V57.8026H221.1Z" fill="white"/>
<path id="Vector_4" fill-rule="evenodd" clip-rule="evenodd" d="M265.892 74.2081V97.1591H273.376V72.7167C273.376 70.01 272.711 67.4691 271.38 65.0939C270.05 62.6635 268.221 60.7026 265.892 59.2112C263.619 57.7197 260.985 56.974 257.992 56.974C254.999 56.974 252.31 57.6645 249.926 59.0455C248.13 60.0441 246.633 61.3248 245.435 62.8874V57.8026H237.951V97.1591H245.435V74.2081C245.435 72.2195 245.879 70.4519 246.765 68.9053C247.653 67.3587 248.873 66.1435 250.425 65.2596C251.978 64.3758 253.751 63.9339 255.747 63.9339C258.74 63.9339 261.18 64.9006 263.065 66.8339C264.949 68.7672 265.892 71.2252 265.892 74.2081Z" fill="white"/>
<path id="Vector_5" fill-rule="evenodd" clip-rule="evenodd" d="M304.382 97.9876C300.722 97.9876 297.452 97.1038 294.569 95.3362C291.686 93.5134 289.385 91.0553 287.668 87.962C286.003 84.8687 285.172 81.3888 285.172 77.5222C285.172 73.6556 286.003 70.1756 287.668 67.0823C289.385 63.989 291.686 61.5311 294.569 59.7083C297.452 57.8854 300.722 56.974 304.382 56.974C307.32 56.974 309.981 57.6092 312.365 58.8797C314.483 59.9596 316.229 61.4321 317.603 63.2972V38H325.171V97.1591H317.603V91.7775C316.243 93.5959 314.524 95.0584 312.448 96.1648C310.064 97.38 307.376 97.9876 304.382 97.9876ZM312.115 89.2048C310.286 90.3648 308.124 90.9448 305.629 90.9448C303.134 90.9448 300.917 90.3648 298.976 89.2048C297.091 88.0449 295.594 86.4707 294.486 84.4821C293.432 82.4383 292.906 80.0908 292.906 77.4394C292.906 74.8432 293.432 72.5508 294.486 70.5623C295.594 68.5185 297.091 66.9166 298.976 65.7567C300.861 64.5967 303.051 64.0167 305.546 64.0167C308.041 64.0167 310.203 64.5967 312.032 65.7567C313.917 66.9166 315.387 68.491 316.439 70.4794C317.548 72.468 318.102 74.8156 318.102 77.5222C318.102 80.1183 317.576 82.4383 316.522 84.4821C315.47 86.4707 314 88.0449 312.115 89.2048Z" fill="white"/>
<path id="Vector_6" fill-rule="evenodd" clip-rule="evenodd" d="M342.054 95.3363C345.214 97.1039 348.762 97.9876 352.699 97.9876C355.803 97.9876 358.713 97.4077 361.43 96.2477C364.202 95.0877 366.53 93.403 368.415 91.1935L363.592 86.305C362.261 87.8516 360.654 89.0116 358.769 89.7849C356.939 90.5583 354.915 90.9449 352.699 90.9449C350.038 90.9449 347.681 90.3925 345.63 89.2878C343.578 88.1278 341.999 86.526 340.89 84.4821C340.211 83.1978 339.741 81.7892 339.478 80.2565H370.411C370.577 79.428 370.688 78.7099 370.744 78.1023C370.798 77.4394 370.827 76.8319 370.827 76.2795C370.827 72.5786 370.023 69.2644 368.415 66.3368C366.863 63.4092 364.673 61.1169 361.845 59.4598C359.074 57.8026 355.859 56.974 352.2 56.974C348.374 56.974 344.91 57.8854 341.805 59.7083C338.756 61.4759 336.317 63.9063 334.487 66.9996C332.713 70.0929 331.826 73.5728 331.826 77.4394C331.826 81.3613 332.74 84.8689 334.571 87.9622C336.4 91.0554 338.895 93.5134 342.054 95.3363ZM339.493 74.0423H363.533C363.328 72.4135 362.904 70.9773 362.261 69.7339C361.319 67.8557 359.989 66.4197 358.27 65.4254C356.551 64.3758 354.472 63.8511 352.034 63.8511C349.483 63.8511 347.238 64.4035 345.297 65.5082C343.357 66.613 341.861 68.1596 340.807 70.1482C340.186 71.3213 339.748 72.6194 339.493 74.0423Z" fill="white"/>
<path id="Vector_7" d="M389.881 97.9876C387.663 97.9876 385.556 97.7115 383.56 97.1591C381.62 96.5514 379.818 95.7229 378.155 94.6734C376.492 93.5687 375.05 92.2707 373.831 90.7792L378.654 85.9736C380.095 87.7412 381.758 89.0669 383.643 89.9506C385.528 90.7792 387.635 91.1935 389.964 91.1935C392.292 91.1935 394.094 90.8069 395.369 90.0335C396.643 89.205 397.281 88.0726 397.281 86.6364C397.281 85.2002 396.755 84.0955 395.701 83.3222C394.704 82.4937 393.401 81.8308 391.793 81.3337C390.185 80.7813 388.466 80.2565 386.637 79.7594C384.863 79.2071 383.173 78.5166 381.565 77.688C379.957 76.8595 378.627 75.7271 377.573 74.2909C376.575 72.8547 376.077 70.949 376.077 68.5738C376.077 66.1986 376.659 64.1549 377.823 62.4425C378.987 60.675 380.594 59.3216 382.646 58.3826C384.753 57.4435 387.275 56.974 390.213 56.974C393.317 56.974 396.061 57.5264 398.445 58.6311C400.885 59.6807 402.881 61.2825 404.432 63.4368L399.61 68.2425C398.501 66.8063 397.115 65.7016 395.452 64.9282C393.845 64.1549 392.014 63.7683 389.964 63.7683C387.801 63.7683 386.138 64.1549 384.974 64.9282C383.865 65.6463 383.311 66.6681 383.311 67.9939C383.311 69.3195 383.81 70.3415 384.807 71.0595C385.805 71.7776 387.108 72.3852 388.717 72.8823C390.38 73.3795 392.097 73.9043 393.872 74.4567C395.646 74.9538 397.337 75.6443 398.944 76.528C400.553 77.4118 401.855 78.5994 402.852 80.0908C403.906 81.5823 404.432 83.5431 404.432 85.9736C404.432 89.6745 403.102 92.602 400.441 94.7563C397.836 96.9105 394.315 97.9876 389.881 97.9876Z" fill="white"/>
<path id="Vector_8" fill-rule="evenodd" clip-rule="evenodd" d="M411.232 57.8026V97.1591H418.716V57.8026H411.232Z" fill="white"/>
<path id="Vector_9" fill-rule="evenodd" clip-rule="evenodd" d="M444.465 114.476C440.418 114.476 436.814 113.73 433.654 112.239C430.549 110.747 428.054 108.648 426.169 105.942L430.993 101.053C432.6 103.097 434.513 104.644 436.73 105.693C438.948 106.798 441.582 107.35 444.631 107.35C448.677 107.35 451.865 106.273 454.193 104.119C456.577 102.02 457.769 99.1752 457.769 95.5849V90.3452C456.441 92.1555 454.723 93.5982 452.613 94.6734C450.229 95.8886 447.513 96.4963 444.465 96.4963C440.861 96.4963 437.618 95.6401 434.735 93.9278C431.908 92.2154 429.663 89.8678 428 86.885C426.335 83.8469 425.504 80.4498 425.504 76.6937C425.504 72.9376 426.335 69.5957 428 66.6681C429.663 63.6854 431.908 61.3378 434.735 59.6254C437.618 57.8579 440.861 56.974 444.465 56.974C447.569 56.974 450.313 57.5817 452.697 58.7969C454.763 59.8497 456.453 61.2758 457.769 63.0751V57.8026H465.254V95.5849C465.254 99.341 464.366 102.628 462.593 105.445C460.874 108.262 458.434 110.471 455.274 112.073C452.17 113.675 448.566 114.476 444.465 114.476ZM452.364 87.8793C450.535 88.9288 448.4 89.4535 445.961 89.4535C443.467 89.4535 441.249 88.9288 439.308 87.8793C437.423 86.7745 435.926 85.2555 434.818 83.3222C433.764 81.3889 433.238 79.1794 433.238 76.6937C433.238 74.2081 433.764 72.0262 434.818 70.1482C435.926 68.2148 437.423 66.7234 439.308 65.674C441.193 64.5691 443.384 64.0168 445.878 64.0168C448.373 64.0168 450.535 64.5691 452.364 65.674C454.193 66.7234 455.607 68.2148 456.605 70.1482C457.658 72.0262 458.185 74.2357 458.185 76.7766C458.185 79.3175 457.686 81.5546 456.688 83.488C455.69 85.366 454.249 86.8297 452.364 87.8793Z" fill="white"/>
<path id="Vector_10" fill-rule="evenodd" clip-rule="evenodd" d="M502.516 74.2081V97.1591H510V72.7167C510 70.01 509.335 67.4691 508.005 65.0939C506.674 62.6635 504.845 60.7026 502.516 59.2112C500.243 57.7197 497.61 56.974 494.616 56.974C491.623 56.974 488.934 57.6645 486.55 59.0455C484.754 60.0441 483.258 61.3248 482.059 62.8874V57.8026H474.576V97.1591H482.059V74.2081C482.059 72.2195 482.504 70.4519 483.39 68.9053C484.277 67.3587 485.497 66.1435 487.049 65.2596C488.601 64.3758 490.376 63.9339 492.371 63.9339C495.365 63.9339 497.804 64.9006 499.689 66.8339C501.574 68.7672 502.516 71.2252 502.516 74.2081Z" fill="white"/>
</g>
<g id="rd-green">
<path id="Vector_11" fill-rule="evenodd" clip-rule="evenodd" d="M90 98.3084V56.5843H104.783V59.2406C107.49 56.9009 111.002 55.7311 115.318 55.7311C117.3 55.7311 119 55.987 120.416 56.499C121.888 57.0109 123.134 57.8073 124.154 58.888L115.573 70.407C115.12 69.8951 114.468 69.4969 113.619 69.2125C112.826 68.8712 111.92 68.7005 110.9 68.7005C108.974 68.7005 107.473 69.2978 106.397 70.4923C105.321 71.63 104.783 73.3365 104.783 75.6118V77.4464L104.698 87.5365C104.698 98.3084 94.5371 98.3084 90 98.3084Z" fill="#53DD6C"/>
<path id="Vector_12" d="M224.843 49.9312C223.457 49.9312 222.32 49.4893 221.433 48.6054C220.547 47.6664 220.103 46.5065 220.103 45.1255C220.103 43.7998 220.547 42.6951 221.433 41.8113C222.32 40.8723 223.457 40.4027 224.843 40.4027C226.228 40.4027 227.365 40.8723 228.252 41.8113C229.139 42.6951 229.583 43.7998 229.583 45.1255C229.583 46.5065 229.139 47.6664 228.252 48.6054C227.365 49.4893 226.228 49.9312 224.843 49.9312Z" fill="#53DD6C"/>
<path id="Vector_13" d="M414.974 49.9312C413.587 49.9312 412.452 49.4893 411.564 48.6054C410.677 47.6664 410.234 46.5065 410.234 45.1255C410.234 43.7998 410.677 42.6951 411.564 41.8113C412.452 40.8723 413.587 40.4027 414.974 40.4027C416.36 40.4027 417.496 40.8723 418.383 41.8113C419.27 42.6951 419.713 43.7998 419.713 45.1255C419.713 46.5065 419.27 47.6664 418.383 48.6054C417.496 49.4893 416.36 49.9312 414.974 49.9312Z" fill="#53DD6C"/>
<path id="Vector_14" fill-rule="evenodd" clip-rule="evenodd" d="M104.698 87.5365L104.783 77.4464V75.6118C104.783 73.3365 105.321 71.63 106.397 70.4923C107.473 69.2978 108.974 68.7005 110.9 68.7005C111.92 68.7005 112.826 68.8712 113.619 69.2125C114.223 69.4145 114.726 69.6741 115.13 69.9912C115.294 70.1202 115.442 70.2589 115.573 70.407L124.154 58.888C123.134 57.8073 121.888 57.0109 120.416 56.499C119 55.987 117.3 55.7311 115.318 55.7311C111.316 55.7311 108.006 56.7368 105.387 58.7485C105.181 58.9063 104.98 59.0704 104.783 59.2406V56.5843H90V98.3084C90.1916 98.3084 90.3933 98.3084 90.6038 98.3077C95.3773 98.2893 104.698 97.8535 104.698 87.5365ZM90.6038 97.7038C92.8807 97.6942 96.0862 97.5884 98.8104 96.4079C100.284 95.7696 101.594 94.8251 102.539 93.426C103.484 92.0283 104.094 90.1317 104.094 87.5365V87.5314L104.179 77.4464V75.6118C104.179 73.2548 104.735 71.3743 105.954 70.0827C107.166 68.7398 108.843 68.0967 110.9 68.0967C111.978 68.0967 112.959 68.2756 113.834 68.6479C114.472 68.8638 115.029 69.1472 115.491 69.5068L123.358 58.9459C122.478 58.118 121.434 57.4922 120.217 57.0692L120.21 57.0668C118.877 56.5849 117.251 56.3349 115.318 56.3349C111.116 56.3349 107.754 57.4712 105.178 59.6975L104.179 60.5605V57.1881H90.6038V97.7038Z" fill="#53DD6C"/>
<path id="Vector_15" d="M122.18 120.009C119.065 120.009 116.904 117.944 115.077 115.666C113.25 117.944 111.089 120.009 107.973 120.009C104.322 120.009 100.87 116.616 100.87 113.028C100.87 109.439 104.322 106.046 107.973 106.046C111.089 106.046 113.25 108.111 115.077 110.389C116.904 108.111 119.065 106.046 122.18 106.046C125.831 106.046 129.284 109.439 129.284 113.028C129.284 116.616 125.831 120.009 122.18 120.009ZM117.085 113.028C118.661 115.089 120.222 116.835 122.18 116.835C124.23 116.835 126.055 114.706 126.055 113.028C126.055 111.349 124.23 109.22 122.18 109.22C120.222 109.22 118.661 110.966 117.085 113.028ZM107.973 109.22C105.923 109.22 104.099 111.349 104.099 113.028C104.099 114.706 105.923 116.835 107.973 116.835C109.931 116.835 111.492 115.089 113.069 113.028C111.492 110.966 109.931 109.22 107.973 109.22Z" fill="#53DD6C"/>
<path id="Vector_16" d="M122.18 116.835C117.44 116.835 115.077 106.046 107.973 106.046C107.973 107.081 107.973 108.148 107.973 109.22C112.803 109.22 115.077 120.009 122.18 120.009C122.227 120.009 122.274 120.002 122.321 120C122.244 118.945 122.208 117.89 122.193 116.834C122.189 116.835 122.185 116.835 122.18 116.835Z" fill="#53DD6C"/>
<path id="Vector_17" d="M104.124 113.027C104.124 116.888 100.963 120.018 97.0623 120.018C93.1619 120.018 90 116.888 90 113.027C90 109.166 93.1619 106.036 97.0623 106.036C100.963 106.036 104.124 109.166 104.124 113.027Z" fill="#53DD6C"/>
<path id="Vector_18" fill-rule="evenodd" clip-rule="evenodd" d="M115.077 114.701L115.548 115.288C117.362 117.551 119.365 119.405 122.18 119.405C123.821 119.405 125.451 118.639 126.678 117.433C127.905 116.227 128.68 114.629 128.68 113.028C128.68 111.426 127.905 109.828 126.678 108.622C125.451 107.416 123.821 106.65 122.18 106.65C119.365 106.65 117.362 108.504 115.548 110.767L115.077 111.354L114.606 110.767C112.791 108.504 110.788 106.65 107.973 106.65C106.333 106.65 104.703 107.416 103.476 108.622C102.248 109.828 101.474 111.426 101.474 113.028C101.474 114.629 102.248 116.227 103.476 117.433C104.703 118.639 106.333 119.405 107.973 119.405C110.788 119.405 112.791 117.551 114.606 115.288L115.077 114.701ZM116.325 113.027L116.605 112.661C117.395 111.627 118.215 110.628 119.103 109.887C119.996 109.141 121.008 108.616 122.18 108.616C123.414 108.616 124.531 109.251 125.322 110.076C126.108 110.895 126.658 111.989 126.658 113.028C126.658 114.066 126.108 115.16 125.322 115.979C124.531 116.804 123.414 117.439 122.18 117.439C121.008 117.439 119.995 116.914 119.102 116.168C118.214 115.427 117.395 114.428 116.605 113.394L116.325 113.027ZM113.829 113.028L113.548 113.394C112.758 114.428 111.939 115.427 111.051 116.168C110.158 116.914 109.145 117.439 107.973 117.439C106.74 117.439 105.623 116.804 104.832 115.979C104.046 115.16 103.495 114.066 103.495 113.028C103.495 111.989 104.046 110.895 104.832 110.076C105.623 109.251 106.74 108.616 107.973 108.616C109.145 108.616 110.158 109.141 111.051 109.887C111.939 110.628 112.758 111.627 113.548 112.661L113.829 113.028ZM115.077 115.666C114.948 115.826 114.818 115.985 114.686 116.143C112.941 118.224 110.869 120.009 107.973 120.009C104.322 120.009 100.87 116.616 100.87 113.028C100.87 109.439 104.322 106.046 107.973 106.046C110.869 106.046 112.941 107.831 114.686 109.912C114.818 110.07 114.948 110.229 115.077 110.389C115.205 110.229 115.336 110.07 115.468 109.912C117.213 107.831 119.284 106.046 122.18 106.046C125.831 106.046 129.284 109.439 129.284 113.028C129.284 116.616 125.831 120.009 122.18 120.009C119.284 120.009 117.213 118.224 115.468 116.143C115.336 115.985 115.205 115.826 115.077 115.666ZM113.069 113.028C111.492 110.966 109.931 109.22 107.973 109.22C105.923 109.22 104.099 111.349 104.099 113.028C104.099 114.706 105.923 116.835 107.973 116.835C109.931 116.835 111.492 115.089 113.069 113.028ZM122.18 116.835C120.222 116.835 118.661 115.089 117.085 113.028C118.661 110.966 120.222 109.22 122.18 109.22C124.23 109.22 126.055 111.349 126.055 113.028C126.055 114.706 124.23 116.835 122.18 116.835Z" fill="#53DD6C"/>
</g>
</g>
</svg>
