<svg width="320" height="160" viewBox="0 0 320 160" fill="none" xmlns="http://www.w3.org/2000/svg">
<g id="logo-dhi">
<rect width="320" height="160" fill="#272727"/>
<g id="dhi-white">
<path id="Vector" d="M193.582 54.0632V62.7724H171.083V54.0632H193.582ZM189.416 68.4956V109.968H175.249V68.4956H189.416Z" fill="white"/>
<path id="Vector_2" fill-rule="evenodd" clip-rule="evenodd" d="M201.111 80.8699V109.968H215.897V80.8699H225.076V68.6047H215.897V51.5182H201.111V68.6047H191.933V80.8699H201.111Z" fill="white"/>
<path id="Vector_3" fill-rule="evenodd" clip-rule="evenodd" d="M155.294 86.6219V109.968H170.08V83.2383C170.08 80.1932 169.401 77.5146 168.041 75.2026C166.737 72.8906 164.839 71.086 162.347 69.789C159.911 68.4357 157.021 67.7589 153.679 67.7589C150.449 67.7589 147.617 68.4357 145.18 69.789C144.456 70.175 143.776 70.611 143.141 71.0969V48.304H128.354V109.968H143.141V86.6219C143.141 85.3249 143.396 84.2252 143.906 83.3229C144.416 82.4207 145.124 81.7158 146.03 81.2082C146.993 80.7008 148.07 80.447 149.26 80.447C151.016 80.447 152.461 81.0109 153.594 82.1387C154.727 83.2102 155.294 84.7045 155.294 86.6219Z" fill="white"/>
<path id="Vector_4" d="M137.362 83.9151L143.141 86.6219V71.0969C143.109 71.1212 143.078 71.1456 143.046 71.1702C141.591 72.3042 140.376 73.7047 139.402 75.3718C138.042 77.7403 137.362 80.588 137.362 83.9151Z" fill="white"/>
<path id="Vector_5" fill-rule="evenodd" clip-rule="evenodd" d="M87.7728 108.022C90.8319 109.883 94.3727 110.814 98.3956 110.814C101.001 110.814 103.438 110.306 105.704 109.291C106.745 108.799 107.708 108.23 108.593 107.583V109.968H123.125V48.304H108.338V70.5262C107.524 70.015 106.645 69.5719 105.704 69.1969C103.438 68.2383 101.001 67.7589 98.3956 67.7589C94.3166 67.7589 90.7471 68.6894 87.6878 70.5503C84.6852 72.3548 82.3057 74.8924 80.5494 78.1631C78.8498 81.4339 78 85.1557 78 89.3286C78 93.4452 78.8498 97.1387 80.5494 100.41C82.3057 103.624 84.7135 106.162 87.7728 108.022ZM105.279 96.6874C104.089 97.3644 102.673 97.7029 101.03 97.7029C99.5001 97.7029 98.1124 97.3364 96.8656 96.6033C95.6195 95.8702 94.6565 94.8834 93.9767 93.6429C93.2969 92.3456 92.9569 90.8793 92.9569 89.244C92.9569 87.6651 93.2969 86.2553 93.9767 85.0147C94.7126 83.7177 95.6763 82.7026 96.8656 81.9695C98.1124 81.2365 99.5282 80.8699 101.115 80.8699C102.701 80.8699 104.089 81.2365 105.279 81.9695C106.525 82.7026 107.488 83.6895 108.168 84.9301C108.848 86.1707 109.188 87.6087 109.188 89.244C109.188 90.9358 108.82 92.4304 108.083 93.727C107.404 94.9675 106.469 95.9543 105.279 96.6874Z" fill="white"/>
</g>
<g id="dhi-red2">
<path id="Vector_6" fill-rule="evenodd" clip-rule="evenodd" d="M226.789 96.8787V68.7523H241.66V96.953L241.658 96.9518V96.9587C239.756 98.647 236.972 102.944 234.85 110.024L234.796 97.752C235.773 97.4319 236.251 96.2537 235.684 95.3262C235.67 95.3034 235.656 95.2808 235.64 95.2584C234.923 94.198 233.318 94.2989 232.758 95.4399C232.69 95.5774 232.644 95.7177 232.617 95.8581C232.457 96.6917 232.98 97.5249 233.787 97.766L233.841 109.977C232.037 103.639 228.76 98.5915 226.824 96.8626L226.789 96.8787Z" fill="white"/>
<path id="Vector_7" d="M234.182 63.924C231.972 63.924 230.131 63.1898 228.658 61.7215C227.185 60.1967 226.449 58.3049 226.449 56.0459C226.449 53.8435 227.185 51.9798 228.658 50.4551C230.131 48.9304 231.972 48.168 234.182 48.168C236.505 48.168 238.374 48.9304 239.79 50.4551C241.263 51.9798 242 53.8435 242 56.0459C242 58.3049 241.263 60.1967 239.79 61.7215C238.374 63.1898 236.505 63.924 234.182 63.924Z" fill="#FE4A49"/>
</g>
</g>
</svg>
