<svg width="49" height="49" viewBox="0 0 49 49" fill="none" xmlns="http://www.w3.org/2000/svg">
<path d="M22.841 39.2913C23.0245 39.5578 23.27 39.7757 23.5564 39.9262C23.8428 40.0767 24.1614 40.1554 24.485 40.1554C24.8085 40.1554 25.1272 40.0767 25.4136 39.9262C25.7 39.7757 25.9455 39.5578 26.129 39.2913L44.129 13.2913C44.3373 12.9914 44.4595 12.6402 44.4823 12.2757C44.505 11.9113 44.4274 11.5476 44.258 11.2241C44.0885 10.9006 43.8336 10.6298 43.5211 10.441C43.2085 10.2523 42.8501 10.1527 42.485 10.1533H6.48498C6.12067 10.1548 5.76366 10.2556 5.45234 10.4448C5.14103 10.6341 4.88719 10.9046 4.71812 11.2273C4.54905 11.55 4.47115 11.9127 4.4928 12.2764C4.51445 12.6401 4.63482 12.9909 4.84098 13.2913L22.841 39.2913Z" fill="#474747"/>
</svg>
