<svg width="42" height="42" viewBox="0 0 42 42" fill="none" xmlns="http://www.w3.org/2000/svg">
<path id="next" d="M25.0096 21.3535L25.363 21L25.0096 20.6465L17.9429 13.5778C17.6714 13.2952 17.5212 12.9175 17.5246 12.5255C17.5281 12.1322 17.6858 11.756 17.9639 11.4779C18.242 11.1998 18.6182 11.0421 19.0115 11.0386C19.4035 11.0352 19.7811 11.1854 20.0637 11.4568L28.5464 19.9395C28.5464 19.9395 28.5464 19.9395 28.5464 19.9396C28.8276 20.2208 28.9856 20.6023 28.9856 21C28.9856 21.3977 28.8276 21.7792 28.5464 22.0604C28.5464 22.0605 28.5464 22.0605 28.5464 22.0605L20.0637 30.5432C19.7811 30.8146 19.4035 30.9648 19.0115 30.9614C18.6182 30.9579 18.242 30.8002 17.9639 30.5221C17.6858 30.244 17.5281 29.8678 17.5246 29.4745C17.5212 29.0825 17.6714 28.7048 17.9429 28.4222L25.0096 21.3535ZM0.5 21C0.5 32.3221 9.67786 41.5 21 41.5C32.3221 41.5 41.5 32.3221 41.5 21C41.5 9.67786 32.3221 0.5 21 0.5C9.67786 0.5 0.5 9.67786 0.5 21Z" fill="white" stroke="#474747"/>
</svg>
