<svg width="42" height="42" viewBox="0 0 42 42" fill="none" xmlns="http://www.w3.org/2000/svg">
<path id="prev" d="M16.9904 20.6465L16.637 21L16.9904 21.3535L24.0571 28.4222C24.3286 28.7048 24.4788 29.0825 24.4754 29.4745C24.4719 29.8678 24.3142 30.244 24.0361 30.5221C23.758 30.8002 23.3818 30.9579 22.9885 30.9614C22.5965 30.9648 22.2189 30.8146 21.9363 30.5432L13.4536 22.0605C13.4536 22.0605 13.4536 22.0605 13.4536 22.0604C13.1724 21.7792 13.0144 21.3977 13.0144 21C13.0144 20.6023 13.1724 20.2208 13.4536 19.9396C13.4536 19.9395 13.4536 19.9395 13.4536 19.9395L21.9396 11.4536L21.9396 11.4536L21.9456 11.4474C22.084 11.3041 22.2495 11.1898 22.4325 11.1112C22.6155 11.0326 22.8124 10.9912 23.0115 10.9895C23.2107 10.9877 23.4082 11.0257 23.5926 11.1011C23.7769 11.1765 23.9444 11.2879 24.0852 11.4288C24.2261 11.5696 24.3375 11.7371 24.4129 11.9214C24.4883 12.1058 24.5263 12.3033 24.5245 12.5025C24.5228 12.7016 24.4814 12.8985 24.4028 13.0815C24.3242 13.2645 24.2099 13.43 24.0666 13.5684L24.0666 13.5683L24.0604 13.5745L16.9904 20.6465ZM0.5 21C0.5 32.3221 9.67786 41.5 21 41.5C32.3221 41.5 41.5 32.3221 41.5 21C41.5 9.67786 32.3221 0.5 21 0.5C9.67786 0.5 0.5 9.67786 0.5 21Z" fill="white" stroke="#474747"/>
</svg>
