<svg width="200" height="400" viewBox="0 0 200 400" fill="none" xmlns="http://www.w3.org/2000/svg">
<g id="segmente black" clip-path="url(#clip0_28_325)">
<g id="ed5">
<path d="M-0.0493927 400L-16.025 383.929L-11.747 379.675L-0.0368958 391.454L11.7488 379.669L16.0154 383.935L-0.0493927 400Z" fill="#FE4A49"/>
<path d="M-118.736 341.388H-141.456L-141.387 318.726L-135.354 318.746L-135.404 335.353H-118.736V341.388Z" fill="#FE4A49"/>
<path d="M-183.933 216.018L-200 199.952L-183.928 183.976L-179.673 188.256L-191.453 199.965L-179.667 211.751L-183.933 216.018Z" fill="#FE4A49"/>
<path d="M-135.353 81.2641H-141.386V58.5452L-118.726 58.6121L-118.744 64.6468L-135.353 64.5969V81.2641Z" fill="#FE4A49"/>
</g>
<g id="ed4">
<path d="M-118.736 341.388H-141.456L-141.387 318.726L-135.354 318.746L-135.404 335.353H-118.736V341.388Z" fill="#FE4A49"/>
<path d="M-183.933 216.018L-200 199.952L-183.928 183.976L-179.673 188.256L-191.453 199.965L-179.667 211.751L-183.933 216.018Z" fill="#FE4A49"/>
<path d="M141.388 341.455L118.726 341.388L118.744 335.353L135.353 335.402V318.736H141.388V341.455Z" fill="#FE4A49"/>
<path d="M-135.353 81.2641H-141.386V58.5452L-118.726 58.6121L-118.744 64.6468L-135.353 64.5969V81.2641Z" fill="#FE4A49"/>
</g>
<g id="ed3">
<path d="M-118.736 341.388H-141.456L-141.387 318.726L-135.354 318.746L-135.404 335.353H-118.736V341.388Z" fill="#FE4A49"/>
<path d="M183.928 216.024L179.672 211.744L191.452 200.034L179.667 188.249L183.932 183.982L200 200.047L183.928 216.024Z" fill="#FE4A49"/>
<path d="M-183.933 216.018L-200 199.952L-183.928 183.976L-179.673 188.256L-191.453 199.965L-179.667 211.751L-183.933 216.018Z" fill="#FE4A49"/>
<path d="M-135.353 81.2641H-141.386V58.5452L-118.726 58.6121L-118.744 64.6468L-135.353 64.5969V81.2641Z" fill="#FE4A49"/>
</g>
<g id="ed2">
<path d="M141.386 81.2727L135.352 81.2555L135.402 64.6467H118.733V58.6121H141.454L141.386 81.2727Z" fill="#FE4A49"/>
<path d="M-118.736 341.388H-141.456L-141.387 318.726L-135.354 318.746L-135.404 335.353H-118.736V341.388Z" fill="#FE4A49"/>
<path d="M-183.933 216.018L-200 199.952L-183.928 183.976L-179.673 188.256L-191.453 199.965L-179.667 211.751L-183.933 216.018Z" fill="#FE4A49"/>
<path d="M-135.353 81.2641H-141.386V58.5452L-118.726 58.6121L-118.744 64.6468L-135.353 64.5969V81.2641Z" fill="#FE4A49"/>
</g>
<g id="ed1">
<path d="M-11.7522 20.3314L-16.0188 16.0648L0.0469971 0L16.0217 16.0705L11.7436 20.3257L0.0354309 8.54576L-11.7522 20.3314Z" fill="#FE4A49"/>
<path d="M-118.736 341.388H-141.456L-141.387 318.726L-135.354 318.746L-135.404 335.353H-118.736V341.388Z" fill="#FE4A49"/>
<path d="M-183.933 216.018L-200 199.952L-183.928 183.976L-179.673 188.256L-191.453 199.965L-179.667 211.751L-183.933 216.018Z" fill="#FE4A49"/>
<path d="M-135.353 81.2641H-141.386V58.5452L-118.726 58.6121L-118.744 64.6468L-135.353 64.5969V81.2641Z" fill="#FE4A49"/>
</g>
<g id="dots">
<path d="M0.000158551 24.8615C1.56348 24.8615 2.83081 23.5942 2.83081 22.0308C2.83081 20.4675 1.56348 19.2002 0.000158551 19.2002C-1.56316 19.2002 -2.83045 20.4675 -2.83045 22.0308C-2.83045 23.5942 -1.56316 24.8615 0.000158551 24.8615Z" fill="#272727"/>
<path d="M177.97 202.831C179.533 202.831 180.8 201.564 180.8 200C180.8 198.437 179.533 197.17 177.97 197.17C176.406 197.17 175.139 198.437 175.139 200C175.139 201.564 176.406 202.831 177.97 202.831Z" fill="#272727"/>
<path d="M-177.969 202.831C-176.406 202.831 -175.139 201.564 -175.139 200C-175.139 198.437 -176.406 197.17 -177.969 197.17C-179.532 197.17 -180.8 198.437 -180.8 200C-180.8 201.564 -179.532 202.831 -177.969 202.831Z" fill="#272727"/>
<path d="M125.844 76.9874C127.407 76.9874 128.674 75.7201 128.674 74.1567C128.674 72.5934 127.407 71.3261 125.844 71.3261C124.28 71.3261 123.013 72.5934 123.013 74.1567C123.013 75.7201 124.28 76.9874 125.844 76.9874Z" fill="#272727"/>
<path d="M-125.843 328.674C-124.28 328.674 -123.013 327.407 -123.013 325.844C-123.013 324.28 -124.28 323.013 -125.843 323.013C-127.407 323.013 -128.674 324.28 -128.674 325.844C-128.674 327.407 -127.407 328.674 -125.843 328.674Z" fill="#272727"/>
<path d="M125.844 328.674C127.407 328.674 128.674 327.407 128.674 325.844C128.674 324.28 127.407 323.013 125.844 323.013C124.28 323.013 123.013 324.28 123.013 325.844C123.013 327.407 124.28 328.674 125.844 328.674Z" fill="#272727"/>
<path d="M0.000158551 380.8C1.56348 380.8 2.83081 379.533 2.83081 377.97C2.83081 376.406 1.56348 375.139 0.000158551 375.139C-1.56316 375.139 -2.83045 376.406 -2.83045 377.97C-2.83045 379.533 -1.56316 380.8 0.000158551 380.8Z" fill="#272727"/>
<path d="M-125.843 76.9874C-124.28 76.9874 -123.013 75.7201 -123.013 74.1567C-123.013 72.5934 -124.28 71.3261 -125.843 71.3261C-127.407 71.3261 -128.674 72.5934 -128.674 74.1567C-128.674 75.7201 -127.407 76.9874 -125.843 76.9874Z" fill="#272727"/>
<path d="M-138.93 143.935C-137.366 143.935 -136.099 142.668 -136.099 141.105C-136.099 139.541 -137.366 138.274 -138.93 138.274C-140.493 138.274 -141.76 139.541 -141.76 141.105C-141.76 142.668 -140.493 143.935 -138.93 143.935Z" fill="#272727"/>
<path d="M140.047 260.903C141.611 260.903 142.878 259.635 142.878 258.072C142.878 256.509 141.611 255.241 140.047 255.241C138.484 255.241 137.217 256.509 137.217 258.072C137.217 259.635 138.484 260.903 140.047 260.903Z" fill="#272727"/>
<path d="M-56.7201 62.4314C-55.1568 62.4314 -53.8895 61.164 -53.8895 59.6007C-53.8895 58.0374 -55.1568 56.7701 -56.7201 56.7701C-58.2834 56.7701 -59.5507 58.0374 -59.5507 59.6007C-59.5507 61.164 -58.2834 62.4314 -56.7201 62.4314Z" fill="#272727"/>
<path d="M57.8381 342.407C59.4014 342.407 60.6688 341.139 60.6688 339.576C60.6688 338.013 59.4014 336.745 57.8381 336.745C56.2747 336.745 55.0075 338.013 55.0075 339.576C55.0075 341.139 56.2747 342.407 57.8381 342.407Z" fill="#272727"/>
<path d="M59.0428 62.9309C60.6062 62.9309 61.8735 61.6636 61.8735 60.1002C61.8735 58.5369 60.6062 57.2696 59.0428 57.2696C57.4795 57.2696 56.2122 58.5369 56.2122 60.1002C56.2122 61.6636 57.4795 62.9309 59.0428 62.9309Z" fill="#272727"/>
<path d="M-57.924 341.907C-56.3607 341.907 -55.0934 340.64 -55.0934 339.077C-55.0934 337.513 -56.3607 336.246 -57.924 336.246C-59.4873 336.246 -60.7546 337.513 -60.7546 339.077C-60.7546 340.64 -59.4873 341.907 -57.924 341.907Z" fill="#272727"/>
<path d="M140.546 145.14C142.109 145.14 143.377 143.873 143.377 142.31C143.377 140.746 142.109 139.479 140.546 139.479C138.983 139.479 137.715 140.746 137.715 142.31C137.715 143.873 138.983 145.14 140.546 145.14Z" fill="#272727"/>
<path d="M-139.428 259.697C-137.865 259.697 -136.597 258.43 -136.597 256.867C-136.597 255.303 -137.865 254.036 -139.428 254.036C-140.991 254.036 -142.259 255.303 -142.259 256.867C-142.259 258.43 -140.991 259.697 -139.428 259.697Z" fill="#272727"/>
</g>
<g id="only lines">
<path d="M-22.3188 146.118C-22.3188 147.586 -22.2767 149.054 -22.1924 150.52C-21.0525 151.763 -19.9551 153.046 -18.9023 154.366C-19.0913 152.688 -19.2225 151.005 -19.2958 149.32C-20.2727 148.224 -21.2809 147.156 -22.3188 146.118Z" fill="#272727"/>
<path d="M22.3181 146.118C21.2801 147.156 20.272 148.224 19.295 149.32C19.2217 151.005 19.0905 152.689 18.9015 154.366C19.9543 153.046 21.0518 151.763 22.1916 150.52C22.2759 149.054 22.3181 147.586 22.3181 146.118Z" fill="#272727"/>
<path d="M-0.000383074 92.2365C-0.699725 92.9359 -1.38262 93.6454 -2.04909 94.3647C-1.34902 95.0658 -0.666124 95.7776 -0.000383074 96.4995C0.665361 95.7776 1.34827 95.0658 2.04834 94.3647C1.38187 93.6454 0.698958 92.9359 -0.000383074 92.2365Z" fill="#272727"/>
<path d="M-49.4802 177.808C-50.9461 177.723 -52.414 177.681 -53.8819 177.681C-52.844 178.719 -51.7762 179.727 -50.68 180.704C-48.9947 180.777 -47.3115 180.909 -45.6335 181.098C-46.9537 180.045 -48.2367 178.947 -49.4802 177.808Z" fill="#272727"/>
<path d="M-0.05656 197.046C-0.447747 197.046 -0.838216 197.042 -1.22795 197.036C-1.499 197.316 -1.7727 197.595 -2.04909 197.871C-1.38261 198.591 -0.699707 199.3 -0.000368134 200C-0.000368134 199.011 -0.0192226 198.026 -0.05656 197.046Z" fill="#272727"/>
<path d="M52.6536 327.117C51.7084 328.095 50.7363 329.046 49.7384 329.969C51.1182 330.044 52.4997 330.081 53.8812 330.081C54.8581 329.104 55.8085 328.101 56.7314 327.072C55.3728 327.125 54.0129 327.14 52.6536 327.117Z" fill="#272727"/>
<path fill-rule="evenodd" clip-rule="evenodd" d="M3.19825 196.978C16.4481 185.155 32.8368 178.765 49.4795 177.808C63.3974 165.05 72.3688 146.982 73.1852 126.814C53.017 127.63 34.9496 136.602 22.1916 150.52C22.2759 149.054 22.3181 147.586 22.3181 146.118C35.4594 132.977 53.3784 124.613 73.2461 123.856L73.2461 123.8C73.2461 104.015 65.4018 86.0619 52.6536 72.8818C34.3194 73.1872 16.0781 80.3349 2.08802 94.325L2.04834 94.3647C1.38187 93.6454 0.698958 92.9359 -0.000383074 92.2365C13.8246 78.4116 31.6401 71.0094 49.7383 70.0301C36.6762 57.9414 19.2007 50.5531 -0.000368134 50.5531C-19.2015 50.5531 -36.677 57.9413 -49.7391 70.0301C-31.6408 71.0094 -13.8253 78.4116 -0.000383074 92.2365C-0.699725 92.9359 -1.38262 93.6454 -2.04909 94.3647L-2.08882 94.3249C-16.0789 80.3349 -34.3202 73.1872 -52.6543 72.8818C-65.4025 86.0619 -73.2469 104.015 -73.2469 123.8L-73.2469 123.856C-53.3792 124.613 -35.4602 132.977 -22.3188 146.118C-22.3188 147.586 -22.2767 149.054 -22.1924 150.52C-34.9503 136.602 -53.0177 127.63 -73.186 126.814C-72.3696 146.982 -63.3982 165.05 -49.4802 177.808C-50.9461 177.723 -52.414 177.681 -53.8819 177.681C-67.0233 164.54 -75.387 146.621 -76.1442 126.753L-76.2004 126.753C-95.9853 126.753 -113.938 134.597 -127.118 147.346C-126.813 165.68 -119.665 183.921 -105.675 197.911L-105.635 197.951C-91.0513 184.438 -72.4666 177.681 -53.8819 177.681C-52.844 178.719 -51.7762 179.727 -50.68 180.704C-69.5427 179.884 -88.6621 186.316 -103.5 200C-88.662 213.683 -69.5427 220.115 -50.68 219.295C-38.2351 208.204 -22.1282 201.133 -4.39912 200.124C-4.35384 200.083 -4.30858 200.041 -4.26337 200C-4.30857 199.958 -4.35381 199.916 -4.39908 199.875C-22.1282 198.866 -38.2351 191.796 -50.68 180.704C-48.9947 180.777 -47.3115 180.909 -45.6335 181.098C-35.1361 189.469 -22.2868 195.016 -8.23605 196.588C-19.2831 187.765 -32.2913 182.601 -45.6335 181.098C-46.9537 180.045 -48.2367 178.947 -49.4802 177.808C-32.8375 178.765 -16.4489 185.155 -3.199 196.978C-3.13761 196.98 -3.07618 196.983 -3.01475 196.985C-3.01724 196.924 -3.01981 196.862 -3.02245 196.801C-14.8453 183.551 -21.2353 167.162 -22.1924 150.52C-21.0525 151.763 -19.9551 153.046 -18.9023 154.366C-17.3989 167.709 -12.2354 180.717 -3.41171 191.764C-4.98388 177.713 -10.5309 164.864 -18.9023 154.366C-19.0913 152.688 -19.2225 151.005 -19.2958 149.32C-8.20436 161.765 -1.13423 177.872 -0.125197 195.601C-0.0836656 195.646 -0.0420776 195.691 -0.000412956 195.737C0.0142221 195.721 0.0288354 195.705 0.0434379 195.689C0.070459 195.66 0.0974726 195.63 0.124461 195.601C1.13352 177.872 8.20363 161.765 19.295 149.32C19.2217 151.005 19.0905 152.689 18.9015 154.366C10.5301 164.864 4.98309 177.713 3.41091 191.764C12.2346 180.717 17.3981 167.709 18.9015 154.366C19.9543 153.046 21.0518 151.763 22.1916 150.52C21.2346 167.162 14.8446 183.551 3.02165 196.801L3.01739 196.902C3.01669 196.918 3.01603 196.935 3.01536 196.951L3.01396 196.985C3.07541 196.983 3.13685 196.98 3.19825 196.978ZM-0.000383074 96.4995C-0.666124 95.7776 -1.34902 95.0658 -2.04909 94.3647C-15.5623 108.949 -22.3188 127.533 -22.3188 146.118C-21.2809 147.156 -20.2727 148.224 -19.2958 149.32C-20.1161 130.457 -13.6842 111.338 -0.000383074 96.4995ZM-0.000383074 96.4995C13.6835 111.338 20.1153 130.457 19.295 149.32C20.272 148.224 21.2801 147.156 22.3181 146.118C22.3181 127.533 15.5615 108.949 2.04834 94.3647C1.34827 95.0658 0.665361 95.7776 -0.000383074 96.4995ZM-8.23616 203.411C-19.2832 212.235 -32.2912 217.398 -45.6335 218.901C-35.1361 210.53 -22.2868 204.983 -8.23616 203.411ZM-53.8819 222.318C-72.4666 222.318 -91.0513 215.561 -105.635 202.048L-105.675 202.088C-119.665 216.078 -126.813 234.319 -127.118 252.654C-113.938 265.402 -95.9853 273.246 -76.2004 273.246L-76.1442 273.246C-75.387 253.378 -67.0233 235.459 -53.8819 222.318ZM-76.2004 276.2C-95.7518 276.2 -113.583 268.836 -127.073 256.731C-126.385 274.516 -119.252 292.097 -105.675 305.674C-92.0978 319.251 -74.5165 326.384 -56.7322 327.072C-68.837 313.583 -76.2004 295.751 -76.2004 276.2ZM-53.882 330.081C-73.3832 330.081 -92.8845 322.642 -107.763 307.763C-122.642 292.884 -130.082 273.382 -130.082 253.881C-143.871 240.092 -152.4 221.042 -152.4 200C-152.4 178.958 -143.871 159.908 -130.082 146.118C-130.082 126.617 -122.642 107.115 -107.763 92.2365C-92.8845 77.3575 -73.3832 69.918 -53.8819 69.918C-40.0924 56.1286 -21.0424 47.5996 -0.000368134 47.5996C21.0417 47.5996 40.0917 56.1286 53.8812 69.9181C73.3824 69.9181 92.8837 77.3576 107.763 92.2365C122.642 107.116 130.081 126.617 130.081 146.118C143.871 159.908 152.4 178.958 152.4 200C152.4 221.042 143.871 240.092 130.081 253.881C130.081 273.382 122.642 292.884 107.763 307.763C92.8837 322.642 73.3825 330.081 53.8812 330.081C54.8581 329.104 55.8085 328.101 56.7314 327.072C74.5157 326.384 92.097 319.251 105.674 305.674C119.252 292.097 126.384 274.516 127.073 256.731C113.583 268.836 95.7511 276.2 76.1996 276.2C76.1996 295.751 68.8363 313.583 56.7314 327.072C55.3728 327.125 54.0129 327.14 52.6536 327.117C65.4018 313.937 73.2461 295.984 73.2461 276.2L73.2461 276.143C53.3784 275.386 35.4594 267.022 22.3181 253.881C22.3181 272.466 15.5615 291.05 2.04833 305.634L2.08804 305.674C16.0781 319.664 34.3194 326.812 52.6536 327.117C51.7084 328.095 50.7363 329.046 49.7384 329.969C31.6401 328.99 13.8246 321.588 -0.000383074 307.763C-13.8253 321.588 -31.6409 328.99 -49.7391 329.969C-36.677 342.058 -19.2015 349.446 -0.000368134 349.446C19.2008 349.446 36.6763 342.058 49.7384 329.969C51.1182 330.044 52.4997 330.081 53.8812 330.081C40.0917 343.871 21.0417 352.4 -0.000368134 352.4C-21.0424 352.4 -40.0925 343.871 -53.882 330.081ZM-0.000398015 303.5C13.6835 288.661 20.1153 269.542 19.295 250.679C8.20362 238.234 1.13351 222.127 0.124461 204.398C0.0829052 204.353 0.0413057 204.308 -0.000383074 204.263C-0.0420598 204.308 -0.0836536 204.353 -0.125197 204.398C-1.13424 222.127 -8.20436 238.234 -19.2958 250.679C-19.2225 248.994 -19.0913 247.311 -18.9023 245.633C-10.5309 235.135 -4.98388 222.286 -3.41171 208.235C-12.2354 219.282 -17.3989 232.29 -18.9023 245.633C-19.9551 246.953 -21.0525 248.236 -22.1924 249.479C-21.2353 232.837 -14.8453 216.448 -3.02245 203.198C-3.01981 203.137 -3.01724 203.075 -3.01475 203.014C-3.07618 203.016 -3.13761 203.019 -3.199 203.022C-16.4489 214.845 -32.8375 221.235 -49.4802 222.192C-63.3982 234.95 -72.3696 253.017 -73.186 273.185C-53.0177 272.369 -34.9503 263.397 -22.1924 249.479C-22.2767 250.945 -22.3188 252.413 -22.3188 253.881C-35.4602 267.023 -53.3792 275.386 -73.2469 276.143L-73.2469 276.2C-73.2469 295.984 -65.4025 313.937 -52.6543 327.117C-34.3202 326.812 -16.0789 319.664 -2.08882 305.674L-2.04909 305.634C-15.5623 291.05 -22.3188 272.466 -22.3188 253.881C-21.2809 252.843 -20.2727 251.775 -19.2958 250.679C-20.116 269.542 -13.6842 288.661 -0.000398015 303.5ZM76.1434 273.246L76.1996 273.246C95.9845 273.246 113.937 265.402 127.117 252.653C126.812 234.319 119.664 216.078 105.674 202.088L105.635 202.048C91.0505 215.561 72.4658 222.318 53.8812 222.318C67.0225 235.459 75.3862 253.378 76.1434 273.246ZM49.4794 222.192C32.8367 221.235 16.4481 214.845 3.19825 203.022L3.12208 203.018C3.08605 203.017 3.05001 203.015 3.01396 203.014C3.01644 203.075 3.01902 203.137 3.02165 203.198C14.8446 216.448 21.2346 232.837 22.1916 249.479C34.9496 263.397 53.017 272.369 73.1852 273.185C72.3688 253.017 63.3974 234.95 49.4794 222.192ZM8.23527 203.411C22.286 204.983 35.1353 210.53 45.6327 218.901C32.2905 217.398 19.2823 212.235 8.23527 203.411ZM50.6793 219.295C38.2344 208.204 22.1274 201.133 4.39828 200.124C4.35301 200.083 4.30777 200.041 4.26258 200C4.30777 199.958 4.35301 199.916 4.39828 199.875C22.1274 198.866 38.2344 191.796 50.6793 180.704C69.542 179.884 88.6613 186.316 103.5 200C88.6613 213.683 69.542 220.115 50.6793 219.295ZM107.763 200C121.588 213.825 128.99 231.64 129.969 249.738C142.058 236.676 149.446 219.201 149.446 200C149.446 180.798 142.058 163.323 129.969 150.261C128.99 168.359 121.588 186.175 107.763 200ZM105.635 197.951C91.0505 184.438 72.4659 177.681 53.8812 177.681C67.0225 164.54 75.3862 146.621 76.1434 126.753L76.1996 126.753C95.9845 126.753 113.937 134.597 127.117 147.346C126.812 165.68 119.664 183.921 105.674 197.911L105.635 197.951ZM8.23529 196.588C19.2824 187.765 32.2905 182.601 45.6328 181.098C35.1353 189.469 22.286 195.016 8.23529 196.588ZM-129.97 150.261C-128.991 168.359 -121.588 186.175 -107.763 200C-121.588 213.825 -128.991 231.64 -129.97 249.738C-142.059 236.676 -149.447 219.201 -149.447 200C-149.447 180.798 -142.059 163.323 -129.97 150.261ZM3.41091 208.235C12.2346 219.282 17.3981 232.29 18.9015 245.633C10.5301 235.135 4.98308 222.286 3.41091 208.235ZM76.1996 123.8C76.1996 104.248 68.8363 86.4166 56.7314 72.9267C74.5157 73.615 92.097 80.7478 105.674 94.325C119.251 107.902 126.384 125.484 127.073 143.268C113.583 131.163 95.751 123.8 76.1996 123.8ZM-56.7321 72.9267C-68.837 86.4166 -76.2004 104.248 -76.2004 123.8C-95.7518 123.8 -113.583 131.163 -127.073 143.268C-126.385 125.484 -119.252 107.902 -105.675 94.3249C-92.0978 80.7477 -74.5164 73.6149 -56.7321 72.9267ZM-0.05656 197.046C-0.447747 197.046 -0.838216 197.042 -1.22795 197.036C-1.499 197.316 -1.7727 197.595 -2.04909 197.871C-1.38261 198.591 -0.699707 199.3 -0.000368134 200C-0.000368134 199.011 -0.0192226 198.026 -0.05656 197.046Z" fill="#272727"/>
<path d="M-22.3188 253.881C-21.2809 252.843 -20.2727 251.775 -19.2958 250.679C-19.2225 248.994 -19.0913 247.311 -18.9023 245.633C-19.9551 246.953 -21.0525 248.236 -22.1924 249.479C-22.2767 250.945 -22.3188 252.413 -22.3188 253.881Z" fill="#272727"/>
</g>
</g>
<defs>
<clipPath id="clip0_28_325">
<rect width="200" height="400" fill="white"/>
</clipPath>
</defs>
</svg>
