<svg width="400" height="400" viewBox="0 0 400 400" fill="none" xmlns="http://www.w3.org/2000/svg">
<g id="segmente black" clip-path="url(#clip0_28_325)">
<g id="ed5">
<path d="M199.951 400L183.975 383.929L188.253 379.675L199.963 391.454L211.749 379.669L216.016 383.935L199.951 400Z" fill="#FE4A49"/>
<path d="M81.2638 341.388H58.5439L58.6128 318.726L64.6465 318.746L64.5967 335.353H81.2638V341.388Z" fill="#FE4A49"/>
<path d="M64.6474 81.2641H58.6137V58.5452L81.2743 58.6121L81.2562 64.6468L64.6474 64.5969V81.2641Z" fill="#FE4A49"/>
</g>
<path id="ed4" d="M341.387 341.455L318.726 341.388L318.744 335.353L335.353 335.402V318.736H341.387V341.455Z" fill="#FE4A49"/>
<path id="edmain" d="M16.0667 216.018L0 199.952L16.0724 183.976L20.3266 188.256L8.54663 199.965L20.3333 211.751L16.0667 216.018Z" fill="#FE4A49"/>
<g id="ed3">
<path d="M81.2638 341.388H58.5439L58.6128 318.726L64.6465 318.746L64.5967 335.353H81.2638V341.388Z" fill="#FE4A49"/>
<path d="M383.928 216.024L379.673 211.744L391.453 200.034L379.667 188.249L383.933 183.982L400 200.047L383.928 216.024Z" fill="#FE4A49"/>
<path d="M64.6474 81.2641H58.6137V58.5452L81.2743 58.6121L81.2562 64.6468L64.6474 64.5969V81.2641Z" fill="#FE4A49"/>
</g>
<g id="ed2">
<path d="M341.387 81.2727L335.352 81.2555L335.402 64.6467H318.734V58.6121H341.454L341.387 81.2727Z" fill="#FE4A49"/>
<path d="M81.2638 341.388H58.5439L58.6128 318.726L64.6465 318.746L64.5967 335.353H81.2638V341.388Z" fill="#FE4A49"/>
<path d="M64.6474 81.2641H58.6137V58.5452L81.2743 58.6121L81.2562 64.6468L64.6474 64.5969V81.2641Z" fill="#FE4A49"/>
</g>
<g id="ed1">
<path d="M188.248 20.3314L183.981 16.0648L200.047 0L216.022 16.0705L211.744 20.3257L200.036 8.54576L188.248 20.3314Z" fill="#FE4A49"/>
<path d="M81.2638 341.388H58.5439L58.6128 318.726L64.6465 318.746L64.5967 335.353H81.2638V341.388Z" fill="#FE4A49"/>
<path d="M64.6474 81.2641H58.6137V58.5452L81.2743 58.6121L81.2562 64.6468L64.6474 64.5969V81.2641Z" fill="#FE4A49"/>
</g>
<g id="dots">
<path d="M200 24.8615C201.563 24.8615 202.831 23.5942 202.831 22.0308C202.831 20.4675 201.563 19.2002 200 19.2002C198.437 19.2002 197.17 20.4675 197.17 22.0308C197.17 23.5942 198.437 24.8615 200 24.8615Z" fill="#272727"/>
<path d="M377.97 202.831C379.533 202.831 380.8 201.564 380.8 200C380.8 198.437 379.533 197.17 377.97 197.17C376.406 197.17 375.139 198.437 375.139 200C375.139 201.564 376.406 202.831 377.97 202.831Z" fill="#272727"/>
<path d="M22.0308 202.831C23.5942 202.831 24.8615 201.564 24.8615 200C24.8615 198.437 23.5942 197.17 22.0308 197.17C20.4675 197.17 19.2002 198.437 19.2002 200C19.2002 201.564 20.4675 202.831 22.0308 202.831Z" fill="#272727"/>
<path d="M325.844 76.9874C327.407 76.9874 328.674 75.7201 328.674 74.1567C328.674 72.5934 327.407 71.3261 325.844 71.3261C324.28 71.3261 323.013 72.5934 323.013 74.1567C323.013 75.7201 324.28 76.9874 325.844 76.9874Z" fill="#272727"/>
<path d="M74.1568 328.674C75.7201 328.674 76.9874 327.407 76.9874 325.844C76.9874 324.28 75.7201 323.013 74.1568 323.013C72.5935 323.013 71.3261 324.28 71.3261 325.844C71.3261 327.407 72.5935 328.674 74.1568 328.674Z" fill="#272727"/>
<path d="M325.844 328.674C327.407 328.674 328.674 327.407 328.674 325.844C328.674 324.28 327.407 323.013 325.844 323.013C324.28 323.013 323.013 324.28 323.013 325.844C323.013 327.407 324.28 328.674 325.844 328.674Z" fill="#272727"/>
<path d="M200 380.8C201.563 380.8 202.831 379.533 202.831 377.97C202.831 376.406 201.563 375.139 200 375.139C198.437 375.139 197.17 376.406 197.17 377.97C197.17 379.533 198.437 380.8 200 380.8Z" fill="#272727"/>
<path d="M74.1568 76.9874C75.7201 76.9874 76.9874 75.7201 76.9874 74.1567C76.9874 72.5934 75.7201 71.3261 74.1568 71.3261C72.5935 71.3261 71.3261 72.5934 71.3261 74.1567C71.3261 75.7201 72.5935 76.9874 74.1568 76.9874Z" fill="#272727"/>
<path d="M61.0703 143.935C62.6336 143.935 63.9009 142.668 63.9009 141.105C63.9009 139.541 62.6336 138.274 61.0703 138.274C59.507 138.274 58.2397 139.541 58.2397 141.105C58.2397 142.668 59.507 143.935 61.0703 143.935Z" fill="#272727"/>
<path d="M340.047 260.903C341.611 260.903 342.878 259.635 342.878 258.072C342.878 256.509 341.611 255.241 340.047 255.241C338.484 255.241 337.217 256.509 337.217 258.072C337.217 259.635 338.484 260.903 340.047 260.903Z" fill="#272727"/>
<path d="M143.28 62.4314C144.843 62.4314 146.111 61.164 146.111 59.6007C146.111 58.0374 144.843 56.7701 143.28 56.7701C141.717 56.7701 140.449 58.0374 140.449 59.6007C140.449 61.164 141.717 62.4314 143.28 62.4314Z" fill="#272727"/>
<path d="M257.838 342.407C259.401 342.407 260.669 341.139 260.669 339.576C260.669 338.013 259.401 336.745 257.838 336.745C256.275 336.745 255.007 338.013 255.007 339.576C255.007 341.139 256.275 342.407 257.838 342.407Z" fill="#272727"/>
<path d="M259.043 62.9309C260.606 62.9309 261.874 61.6636 261.874 60.1002C261.874 58.5369 260.606 57.2696 259.043 57.2696C257.48 57.2696 256.212 58.5369 256.212 60.1002C256.212 61.6636 257.48 62.9309 259.043 62.9309Z" fill="#272727"/>
<path d="M142.076 341.907C143.639 341.907 144.907 340.64 144.907 339.077C144.907 337.513 143.639 336.246 142.076 336.246C140.513 336.246 139.245 337.513 139.245 339.077C139.245 340.64 140.513 341.907 142.076 341.907Z" fill="#272727"/>
<path d="M340.546 145.14C342.109 145.14 343.377 143.873 343.377 142.31C343.377 140.746 342.109 139.479 340.546 139.479C338.983 139.479 337.715 140.746 337.715 142.31C337.715 143.873 338.983 145.14 340.546 145.14Z" fill="#272727"/>
<path d="M60.5719 259.697C62.1352 259.697 63.4025 258.43 63.4025 256.867C63.4025 255.303 62.1352 254.036 60.5719 254.036C59.0086 254.036 57.7413 255.303 57.7413 256.867C57.7413 258.43 59.0086 259.697 60.5719 259.697Z" fill="#272727"/>
</g>
<g id="only lines">
<path d="M177.681 146.118C177.681 147.586 177.723 149.054 177.808 150.52C178.947 151.763 180.045 153.046 181.098 154.366C180.909 152.688 180.777 151.005 180.704 149.32C179.727 148.224 178.719 147.156 177.681 146.118Z" fill="#272727"/>
<path d="M222.318 146.118C221.28 147.156 220.272 148.224 219.295 149.32C219.222 151.005 219.091 152.689 218.901 154.366C219.954 153.046 221.052 151.763 222.192 150.52C222.276 149.054 222.318 147.586 222.318 146.118Z" fill="#272727"/>
<path d="M200 92.2365C199.3 92.9359 198.617 93.6454 197.951 94.3647C198.651 95.0658 199.334 95.7776 200 96.4995C200.665 95.7776 201.348 95.0658 202.048 94.3647C201.382 93.6454 200.699 92.9359 200 92.2365Z" fill="#272727"/>
<path d="M150.52 177.808C149.054 177.723 147.586 177.681 146.118 177.681C147.156 178.719 148.224 179.727 149.32 180.704C151.005 180.777 152.689 180.909 154.366 181.098C153.046 180.045 151.763 178.947 150.52 177.808Z" fill="#272727"/>
<path d="M199.943 197.046C199.552 197.046 199.162 197.042 198.772 197.036C198.501 197.316 198.227 197.595 197.951 197.871C198.617 198.591 199.3 199.3 200 200C200 199.011 199.981 198.026 199.943 197.046Z" fill="#272727"/>
<path d="M252.654 327.117C251.708 328.095 250.736 329.046 249.738 329.969C251.118 330.044 252.5 330.081 253.881 330.081C254.858 329.104 255.809 328.101 256.731 327.072C255.373 327.125 254.013 327.14 252.654 327.117Z" fill="#272727"/>
<path fill-rule="evenodd" clip-rule="evenodd" d="M203.198 196.978C216.448 185.155 232.837 178.765 249.479 177.808C263.397 165.05 272.369 146.982 273.185 126.814C253.017 127.63 234.95 136.602 222.192 150.52C222.276 149.054 222.318 147.586 222.318 146.118C235.459 132.977 253.378 124.613 273.246 123.856L273.246 123.8C273.246 104.015 265.402 86.0619 252.654 72.8818C234.319 73.1872 216.078 80.3349 202.088 94.325L202.048 94.3647C201.382 93.6454 200.699 92.9359 200 92.2365C213.825 78.4116 231.64 71.0094 249.738 70.0301C236.676 57.9414 219.201 50.5531 200 50.5531C180.799 50.5531 163.323 57.9413 150.261 70.0301C168.359 71.0094 186.175 78.4116 200 92.2365C199.3 92.9359 198.617 93.6454 197.951 94.3647L197.911 94.3249C183.921 80.3349 165.68 73.1872 147.346 72.8818C134.597 86.0619 126.753 104.015 126.753 123.8L126.753 123.856C146.621 124.613 164.54 132.977 177.681 146.118C177.681 147.586 177.723 149.054 177.808 150.52C165.05 136.602 146.982 127.63 126.814 126.814C127.63 146.982 136.602 165.05 150.52 177.808C149.054 177.723 147.586 177.681 146.118 177.681C132.977 164.54 124.613 146.621 123.856 126.753L123.8 126.753C104.015 126.753 86.0619 134.597 72.8818 147.346C73.1872 165.68 80.3349 183.921 94.325 197.911L94.3647 197.951C108.949 184.438 127.533 177.681 146.118 177.681C147.156 178.719 148.224 179.727 149.32 180.704C130.457 179.884 111.338 186.316 96.4995 200C111.338 213.683 130.457 220.115 149.32 219.295C161.765 208.204 177.872 201.133 195.601 200.124C195.646 200.083 195.691 200.041 195.737 200C195.691 199.958 195.646 199.916 195.601 199.875C177.872 198.866 161.765 191.796 149.32 180.704C151.005 180.777 152.689 180.909 154.366 181.098C164.864 189.469 177.713 195.016 191.764 196.588C180.717 187.765 167.709 182.601 154.366 181.098C153.046 180.045 151.763 178.947 150.52 177.808C167.163 178.765 183.551 185.155 196.801 196.978C196.862 196.98 196.924 196.983 196.985 196.985C196.983 196.924 196.98 196.862 196.978 196.801C185.155 183.551 178.765 167.162 177.808 150.52C178.947 151.763 180.045 153.046 181.098 154.366C182.601 167.709 187.765 180.717 196.588 191.764C195.016 177.713 189.469 164.864 181.098 154.366C180.909 152.688 180.777 151.005 180.704 149.32C191.796 161.765 198.866 177.872 199.875 195.601C199.916 195.646 199.958 195.691 200 195.737C200.014 195.721 200.029 195.705 200.043 195.689C200.07 195.66 200.097 195.63 200.124 195.601C201.134 177.872 208.204 161.765 219.295 149.32C219.222 151.005 219.091 152.689 218.901 154.366C210.53 164.864 204.983 177.713 203.411 191.764C212.235 180.717 217.398 167.709 218.901 154.366C219.954 153.046 221.052 151.763 222.192 150.52C221.235 167.162 214.845 183.551 203.022 196.801L203.017 196.902C203.017 196.918 203.016 196.935 203.015 196.951L203.014 196.985C203.075 196.983 203.137 196.98 203.198 196.978ZM200 96.4995C199.334 95.7776 198.651 95.0658 197.951 94.3647C184.438 108.949 177.681 127.533 177.681 146.118C178.719 147.156 179.727 148.224 180.704 149.32C179.884 130.457 186.316 111.338 200 96.4995ZM200 96.4995C213.683 111.338 220.115 130.457 219.295 149.32C220.272 148.224 221.28 147.156 222.318 146.118C222.318 127.533 215.562 108.949 202.048 94.3647C201.348 95.0658 200.665 95.7776 200 96.4995ZM191.764 203.411C180.717 212.235 167.709 217.398 154.367 218.901C164.864 210.53 177.713 204.983 191.764 203.411ZM146.118 222.318C127.533 222.318 108.949 215.561 94.3647 202.048L94.325 202.088C80.3349 216.078 73.1872 234.319 72.8818 252.654C86.0619 265.402 104.015 273.246 123.8 273.246L123.856 273.246C124.613 253.378 132.977 235.459 146.118 222.318ZM123.8 276.2C104.248 276.2 86.4166 268.836 72.9267 256.731C73.615 274.516 80.7477 292.097 94.325 305.674C107.902 319.251 125.484 326.384 143.268 327.072C131.163 313.583 123.8 295.751 123.8 276.2ZM146.118 330.081C126.617 330.081 107.115 322.642 92.2365 307.763C77.3576 292.884 69.9181 273.382 69.9181 253.881C56.1286 240.092 47.5996 221.042 47.5996 200C47.5996 178.958 56.1286 159.908 69.9181 146.118C69.9181 126.617 77.3575 107.115 92.2365 92.2365C107.116 77.3575 126.617 69.918 146.118 69.918C159.908 56.1286 178.958 47.5996 200 47.5996C221.042 47.5996 240.092 56.1286 253.881 69.9181C273.382 69.9181 292.884 77.3576 307.763 92.2365C322.642 107.116 330.081 126.617 330.081 146.118C343.871 159.908 352.4 178.958 352.4 200C352.4 221.042 343.871 240.092 330.081 253.881C330.081 273.382 322.642 292.884 307.763 307.763C292.884 322.642 273.382 330.081 253.881 330.081C254.858 329.104 255.809 328.101 256.731 327.072C274.516 326.384 292.097 319.251 305.674 305.674C319.252 292.097 326.384 274.516 327.073 256.731C313.583 268.836 295.751 276.2 276.2 276.2C276.2 295.751 268.836 313.583 256.731 327.072C255.373 327.125 254.013 327.14 252.654 327.117C265.402 313.937 273.246 295.984 273.246 276.2L273.246 276.143C253.378 275.386 235.459 267.022 222.318 253.881C222.318 272.466 215.561 291.05 202.048 305.634L202.088 305.674C216.078 319.664 234.319 326.812 252.654 327.117C251.708 328.095 250.736 329.046 249.738 329.969C231.64 328.99 213.825 321.588 200 307.763C186.175 321.588 168.359 328.99 150.261 329.969C163.323 342.058 180.798 349.446 200 349.446C219.201 349.446 236.676 342.058 249.738 329.969C251.118 330.044 252.5 330.081 253.881 330.081C240.092 343.871 221.042 352.4 200 352.4C178.958 352.4 159.908 343.871 146.118 330.081ZM200 303.5C213.683 288.661 220.115 269.542 219.295 250.679C208.204 238.234 201.134 222.127 200.124 204.398C200.083 204.353 200.041 204.308 200 204.263C199.958 204.308 199.916 204.353 199.875 204.398C198.866 222.127 191.796 238.234 180.704 250.679C180.777 248.994 180.909 247.311 181.098 245.633C189.469 235.135 195.016 222.286 196.588 208.235C187.765 219.282 182.601 232.29 181.098 245.633C180.045 246.953 178.947 248.236 177.808 249.479C178.765 232.837 185.155 216.448 196.978 203.198C196.98 203.137 196.983 203.075 196.985 203.014C196.924 203.016 196.862 203.019 196.801 203.022C183.551 214.845 167.163 221.235 150.52 222.192C136.602 234.95 127.63 253.017 126.814 273.185C146.982 272.369 165.05 263.397 177.808 249.479C177.723 250.945 177.681 252.413 177.681 253.881C164.54 267.023 146.621 275.386 126.753 276.143L126.753 276.2C126.753 295.984 134.597 313.937 147.346 327.117C165.68 326.812 183.921 319.664 197.911 305.674L197.951 305.634C184.438 291.05 177.681 272.466 177.681 253.881C178.719 252.843 179.727 251.775 180.704 250.679C179.884 269.542 186.316 288.661 200 303.5ZM276.143 273.246L276.2 273.246C295.985 273.246 313.937 265.402 327.117 252.653C326.812 234.319 319.664 216.078 305.674 202.088L305.635 202.048C291.051 215.561 272.466 222.318 253.881 222.318C267.023 235.459 275.386 253.378 276.143 273.246ZM249.479 222.192C232.837 221.235 216.448 214.845 203.198 203.022L203.122 203.018C203.086 203.017 203.05 203.015 203.014 203.014C203.016 203.075 203.019 203.137 203.022 203.198C214.845 216.448 221.235 232.837 222.192 249.479C234.95 263.397 253.017 272.369 273.185 273.185C272.369 253.017 263.397 234.95 249.479 222.192ZM208.235 203.411C222.286 204.983 235.135 210.53 245.633 218.901C232.29 217.398 219.282 212.235 208.235 203.411ZM250.679 219.295C238.234 208.204 222.127 201.133 204.398 200.124C204.353 200.083 204.308 200.041 204.263 200C204.308 199.958 204.353 199.916 204.398 199.875C222.127 198.866 238.234 191.796 250.679 180.704C269.542 179.884 288.661 186.316 303.5 200C288.661 213.683 269.542 220.115 250.679 219.295ZM307.763 200C321.588 213.825 328.99 231.64 329.969 249.738C342.058 236.676 349.446 219.201 349.446 200C349.446 180.798 342.058 163.323 329.969 150.261C328.99 168.359 321.588 186.175 307.763 200ZM305.635 197.951C291.051 184.438 272.466 177.681 253.881 177.681C267.023 164.54 275.386 146.621 276.143 126.753L276.2 126.753C295.984 126.753 313.937 134.597 327.117 147.346C326.812 165.68 319.664 183.921 305.674 197.911L305.635 197.951ZM208.235 196.588C219.282 187.765 232.291 182.601 245.633 181.098C235.135 189.469 222.286 195.016 208.235 196.588ZM70.0301 150.261C71.0095 168.359 78.4116 186.175 92.2365 200C78.4116 213.825 71.0094 231.64 70.0301 249.738C57.9413 236.676 50.5531 219.201 50.5531 200C50.5531 180.798 57.9414 163.323 70.0301 150.261ZM203.411 208.235C212.235 219.282 217.398 232.29 218.901 245.633C210.53 235.135 204.983 222.286 203.411 208.235ZM276.2 123.8C276.2 104.248 268.836 86.4166 256.731 72.9267C274.516 73.615 292.097 80.7478 305.674 94.325C319.251 107.902 326.384 125.484 327.073 143.268C313.583 131.163 295.751 123.8 276.2 123.8ZM143.268 72.9267C131.163 86.4166 123.8 104.248 123.8 123.8C104.248 123.8 86.4166 131.163 72.9267 143.268C73.6149 125.484 80.7477 107.902 94.325 94.3249C107.902 80.7477 125.484 73.6149 143.268 72.9267ZM199.943 197.046C199.552 197.046 199.162 197.042 198.772 197.036C198.501 197.316 198.227 197.595 197.951 197.871C198.617 198.591 199.3 199.3 200 200C200 199.011 199.981 198.026 199.943 197.046Z" fill="#272727"/>
<path d="M177.681 253.881C178.719 252.843 179.727 251.775 180.704 250.679C180.777 248.994 180.909 247.311 181.098 245.633C180.045 246.953 178.947 248.236 177.808 249.479C177.723 250.945 177.681 252.413 177.681 253.881Z" fill="#272727"/>
</g>
</g>
<defs>
<clipPath id="clip0_28_325">
<rect width="400" height="400" fill="white"/>
</clipPath>
</defs>
</svg>
